<svg width="601" height="359" viewBox="0 0 601 359" fill="none" xmlns="http://www.w3.org/2000/svg">
<g clip-path="url(#clip0)">
<g filter="url(#filter0_d)">
<path d="M546.541 154.128C547.455 154.705 548.336 155.042 548.497 154.881C548.753 154.617 547.767 140.666 545.676 114.991C545.227 109.478 544.674 102.09 544.45 98.5637C543.464 83.3063 542.078 65.7387 541.253 58.0964C541.044 56.1131 540.652 51.4253 540.395 47.679C540.139 43.9328 539.81 39.6056 539.666 38.063C539.522 36.5205 539.145 31.0658 538.825 25.9413L538.256 16.6242L542.551 16.5865C550.051 16.5208 559.371 15.7908 559.932 15.2258C561.013 14.1296 538.071 15.8116 535.739 17C533.504 18.1355 532.55 18.1018 529.217 16.7684C527.894 16.2379 527.774 16.3261 528.543 17.2789C529.056 17.9119 529.713 21.8561 530.002 26.043C530.29 30.23 530.683 35.639 530.883 38.063C531.084 40.4871 531.597 47.6238 532.029 53.923C532.462 60.2215 532.975 66.1714 533.183 67.145C533.383 68.1179 533.736 71.9795 533.968 75.7257C534.714 87.7217 536.036 107.082 536.813 117.395C537.23 122.908 537.967 133.181 538.456 140.233C538.937 147.285 539.474 153.479 539.642 154C539.874 154.729 540.523 154.737 542.415 154.024C544.346 153.295 545.243 153.319 546.541 154.128V154.128ZM479.101 347.177C479.069 337.682 478.58 326.014 477.555 310.116C477.154 303.945 476.793 294.057 476.745 288.143C476.697 282.229 476.537 277.181 476.385 276.924C476.232 276.668 475.872 269.248 475.583 260.433C475.046 244.11 474.846 239.013 473.828 216.36C473.516 209.308 473.227 201.375 473.187 198.73L473.123 193.922L477.13 193.522C481.04 193.121 481.072 193.097 478.46 192.52C476.978 192.191 474.91 192.143 473.852 192.408C472.522 192.744 471.921 192.552 471.921 191.799C471.921 189.491 474.678 189.042 486.345 189.483C497.692 189.908 497.973 189.956 498.229 191.751C498.445 193.305 498.205 193.514 496.626 193.137C495.601 192.889 493.141 193.017 491.153 193.418L487.547 194.147L491.554 194.331C493.758 194.427 495.985 194.459 496.506 194.395C497.019 194.331 497.636 194.587 497.86 194.956C498.277 195.629 499.495 213.467 500.353 231.585C500.609 236.874 500.97 243.91 501.162 247.211C501.354 250.513 501.715 257.725 501.963 263.238C502.212 268.751 502.58 276.315 502.773 280.066C502.973 283.816 503.317 290.483 503.534 294.89C503.758 299.298 504.127 306.51 504.351 310.917C504.576 315.324 504.944 323.081 505.169 328.146C505.401 333.21 505.81 341.416 506.082 346.376L506.571 355.391H492.852H479.133L479.101 347.177ZM527.614 357.595C526.196 356.882 526.011 355.96 525.971 349.477C525.931 342.145 525.402 331.343 524.008 309.715C523.599 303.32 523.062 294.129 522.822 289.281C522.574 284.433 522.205 278.479 521.997 276.059C521.796 273.639 521.444 267.685 521.211 262.837C520.987 257.989 520.626 252.035 520.418 249.615C520.033 245.2 519.649 238.925 518.807 223.171C518.559 218.539 518.158 212.505 517.91 209.749L517.469 204.74H511.419H505.369L505.946 201.735C506.258 200.085 506.515 198.121 506.507 197.384C506.499 196.639 506.996 195.613 507.613 195.1C508.238 194.579 508.983 192.849 509.287 191.238C509.584 189.627 510.353 187.504 511.002 186.51C512.172 184.715 512.156 184.707 507.741 184.707C505.305 184.707 503.181 184.33 503.029 183.866C502.853 183.329 498.429 183.016 490.849 183.008C478.388 182.984 476.729 182.768 476.729 181.133C476.729 180.484 475.543 180.171 473.324 180.22C470.182 180.292 469.902 180.131 469.669 178.096C469.517 176.822 468.924 175.892 468.251 175.892C467.41 175.892 467.225 176.445 467.586 177.896C467.899 179.13 467.746 179.899 467.201 179.899C466.713 179.899 466.312 180.404 466.312 181.013C466.312 182.055 464.693 183.104 463.075 183.104C462.69 183.104 461.929 181.574 461.4 179.699L460.422 176.293L459.957 178.697C459.613 180.492 458.988 181.165 457.497 181.365C454.861 181.726 454.292 182.351 453.515 185.813L452.858 188.714H456.808C460.646 188.714 464.709 190.445 464.709 192.071C464.709 192.496 463.539 192.776 462.105 192.704C460.679 192.624 457.698 192.656 455.494 192.784C451.704 192.993 451.792 193.025 457.048 193.466C462.161 193.882 462.642 194.083 463.147 195.974C463.443 197.104 463.94 206.119 464.236 216.007C464.541 225.896 464.934 236.329 465.118 239.198C465.422 244.062 465.711 252.267 466.721 284.473C467.217 300.203 467.706 315.557 468.379 336.56C468.66 345.374 469.229 353.003 469.637 353.508C470.126 354.109 470.022 354.582 469.349 354.846C468.692 355.111 468.828 355.287 469.718 355.327C470.495 355.359 471.12 354.878 471.12 354.245C471.12 352.955 473.876 351.809 475.119 352.578C475.567 352.859 475.928 353.572 475.928 354.173C475.928 354.926 474.309 355.439 470.727 355.824C463.716 356.569 444.115 355.944 443.105 354.942C442.657 354.486 442.128 347.626 441.903 339.34C441.094 309.403 440.677 292.871 440.293 275.258C439.868 255.914 439.01 225.815 438.658 217.962C438.538 215.318 438.401 211.079 438.353 208.547L438.265 203.939H435.461C433.305 203.939 432.672 203.619 432.72 202.537C432.832 199.764 435.18 187.656 436.302 184.066C436.831 182.359 436.695 182.263 434.563 182.784C433.297 183.096 432.079 183.585 431.855 183.874C431.254 184.659 426.245 186.574 425.845 186.173C425.652 185.981 425.404 184.643 425.292 183.193C425.107 180.692 425.027 180.636 423.865 182.071C422.567 183.673 419.394 185.276 420.243 183.898C420.516 183.457 420.347 183.104 419.883 183.104C419.418 183.104 419.033 183.649 419.033 184.306C419.033 186.085 416.886 185.765 416.397 183.906C416.172 183.032 416.172 180.861 416.413 179.09C416.757 176.541 417.246 175.772 418.769 175.388C420.564 174.939 420.596 174.835 419.258 173.833C418.048 172.919 417.687 172.959 416.83 174.081C416.285 174.803 415.828 176.205 415.828 177.199C415.828 179.37 414.434 180.42 413.2 179.186C412.086 178.08 409.417 178.016 409.417 179.098C409.417 179.538 408.792 179.907 408.015 179.915C406.821 179.923 406.789 180.035 407.815 180.7C408.656 181.237 409.289 181.117 409.906 180.284C410.916 178.937 412.623 178.697 412.623 179.899C412.623 180.34 413.167 180.7 413.825 180.7C414.698 180.7 415.027 181.59 415.027 183.906C415.027 186.222 414.698 187.111 413.825 187.111C413.167 187.111 412.623 186.75 412.623 186.31C412.623 185.869 412.174 185.597 411.621 185.709C411.076 185.821 410.619 185.364 410.619 184.707C410.619 184.05 409.602 183 408.359 182.375C406.781 181.582 406.212 180.797 406.476 179.771C406.773 178.665 406.436 178.312 405.138 178.36C404.185 178.393 403.864 178.601 404.409 178.825C404.962 179.05 405.411 180.46 405.411 181.966C405.411 184.17 405.098 184.707 403.808 184.707C402.926 184.707 402.205 185.028 402.205 185.42C402.205 186.366 398.647 187.231 397.141 186.654C396.492 186.406 395.771 185.5 395.554 184.651C395.073 182.816 392.958 182.592 392.301 184.306C391.772 185.685 388.583 185.957 388.583 184.627C388.583 184.146 390.434 181.934 392.693 179.731C395.835 176.646 396.54 175.548 395.698 175.011C394.785 174.434 394.809 174.314 395.795 174.29C396.868 174.266 396.868 174.178 395.795 173.488C394.825 172.863 394.937 172.711 396.396 172.703C397.846 172.687 398.199 172.23 398.199 170.403C398.199 167.943 396.356 165.82 393.791 165.339C392.629 165.122 392.189 164.401 392.189 162.726C392.189 161.452 391.788 160.274 391.291 160.106C390.738 159.914 390.538 160.531 390.762 161.709C391.283 164.441 384.327 170.596 381.515 169.89C379.728 169.442 379.68 169.506 380.874 170.7C381.587 171.413 382.172 172.479 382.172 173.056C382.172 173.641 382.717 174.33 383.374 174.578C384.039 174.835 384.576 175.556 384.576 176.181C384.576 177.495 382.885 178.296 380.104 178.296C378.646 178.296 378.149 177.848 378.101 176.493C378.061 175.315 377.885 175.099 377.58 175.868C377.324 176.509 376.362 177.711 375.441 178.529C374.519 179.346 374.271 179.755 374.888 179.434C375.633 179.05 375.817 179.162 375.433 179.787C375.112 180.308 374.567 180.556 374.231 180.34C373.886 180.131 372.844 180.66 371.915 181.526C369.976 183.329 368.485 183.521 367.107 182.143C366.362 181.398 366.145 181.574 366.145 182.944C366.145 183.914 366.522 184.707 366.987 184.707C367.443 184.707 368.75 185.637 369.887 186.774C371.666 188.545 371.835 189.114 371.073 190.781C370.24 192.616 367.748 193.538 367.748 192.015C367.748 191.623 367.027 191.118 366.145 190.885C364.535 190.461 363.845 187.912 365.344 187.912C365.785 187.912 366.145 187.552 366.145 187.111C366.145 186.67 365.608 186.31 364.943 186.31C364.238 186.31 363.733 187.055 363.717 188.113C363.669 191.102 358.605 195.926 355.496 195.926C354.005 195.926 348.933 192.52 347.138 190.316C346.601 189.659 346.152 188.481 346.136 187.712C346.12 186.582 345.375 186.302 342.306 186.262C340.214 186.238 336.432 186.149 333.9 186.061C327.922 185.861 327.144 187.424 332.537 188.802C336.103 189.715 336.496 190.044 336.496 192.071C336.496 193.538 336.921 194.323 337.698 194.323C338.443 194.323 338.9 193.57 338.9 192.336C338.9 190.877 339.445 190.212 340.919 189.844C343.411 189.219 345.142 190.557 345.463 193.361C345.647 194.908 346.376 195.717 348.115 196.31C351.617 197.488 352.651 198.746 352.058 201.102C351.601 202.929 351.16 203.138 347.674 203.138C345.551 203.138 343.58 202.777 343.307 202.336C341.472 199.355 337.858 205.173 338.179 210.598C338.619 218.147 339.597 217.562 326.527 217.562H314.956L314.708 220.967C314.483 224.077 314.259 224.397 312.095 224.645C309.13 224.982 307.648 223.131 307.648 219.068C307.648 216.768 308.025 215.951 309.251 215.558C311.134 214.965 311.286 214.108 309.755 212.834C308.882 212.113 308.553 212.265 308.225 213.531C307.6 215.919 305.604 216.312 303.705 214.42C302.792 213.499 302.039 212.425 302.039 212.016C302.039 211.616 301.638 211.151 301.141 210.983C300.083 210.63 300.957 205.542 302.079 205.542C302.471 205.542 302.591 205.013 302.335 204.364C301.942 203.322 301.742 203.322 300.7 204.364C299.178 205.886 297.231 205.878 297.231 204.34C297.231 203.683 297.615 203.138 298.08 203.138C298.545 203.138 298.705 203.586 298.425 204.139C298.144 204.692 298.392 204.58 298.977 203.891C299.562 203.202 300.62 202.417 301.325 202.152C302.039 201.888 302.816 200.918 303.056 199.996C303.401 198.69 303.12 198.33 301.766 198.314C300.5 198.306 300.324 198.121 301.117 197.617C301.71 197.24 302.063 196.254 301.902 195.429C301.686 194.315 301.045 193.986 299.442 194.179C297.303 194.427 297.279 194.379 297.423 189.916C297.503 187.295 297.19 185.172 296.662 184.851C296.165 184.547 295.844 183.152 295.94 181.766L296.117 179.234L294.161 180.764C293.088 181.614 291.132 182.303 289.818 182.303C287.727 182.303 287.478 182.543 287.799 184.234C288.087 185.733 287.879 186.069 286.893 185.725C286.036 185.436 286.148 185.717 287.214 186.574C288.648 187.728 288.672 187.864 287.414 187.888C286.485 187.904 286.036 188.513 286.076 189.715C286.116 190.709 286.324 191.07 286.549 190.517C287.118 189.106 288.224 189.267 290.139 191.054C292.198 192.977 291.469 194.323 288.368 194.323C286.597 194.323 286.012 194.7 286.012 195.83C286.012 196.671 286.733 197.528 287.615 197.761C288.496 197.993 289.217 197.849 289.217 197.456C289.217 196.246 291.421 196.639 291.91 197.929C292.206 198.698 291.886 199.155 290.996 199.187C289.85 199.235 289.882 199.355 291.221 199.932C292.503 200.485 292.559 200.63 291.485 200.678C289.906 200.742 286.477 205.942 287.222 207.152C287.502 207.609 287.262 207.89 286.677 207.761C285.852 207.593 285.523 209.829 285.211 217.562L284.81 227.578L280.29 228.3C273.96 229.301 273.191 228.844 273.191 224.085C273.191 219.821 273.832 219.164 277.983 219.164C280.346 219.164 281.981 217.153 279.713 217.033C278.992 216.993 269.024 216.736 257.565 216.464C245.633 216.175 236.626 215.639 236.481 215.206C236.345 214.789 235.712 214.645 235.087 214.885C234.454 215.126 233.717 214.741 233.444 214.036C232.707 212.113 233.789 208.747 235.143 208.747C236.578 208.747 236.802 203.931 235.44 202.561C234.783 201.904 234.815 199.796 235.552 194.587C236.241 189.787 236.754 188.025 237.147 189.114C237.467 189.996 237.539 191.046 237.307 191.438C237.074 191.839 237.267 191.927 237.732 191.639C238.204 191.35 238.381 190.34 238.132 189.387C237.828 188.209 237.972 187.84 238.613 188.233C239.246 188.626 239.535 187.888 239.535 185.861C239.535 183.329 239.759 182.976 241.113 183.329C241.979 183.553 243.1 183.233 243.613 182.624C244.399 181.678 243.293 181.502 236.498 181.502C229.277 181.502 228.484 181.357 228.725 180.099C228.877 179.33 229.053 177.8 229.117 176.694C229.205 175.091 229.342 174.971 229.79 176.093C230.303 177.391 230.407 177.375 231.313 175.924C232.667 173.769 231.457 173.304 227.803 174.578C226.104 175.171 224.173 175.5 223.508 175.307C222.514 175.027 222.498 175.099 223.428 175.748C224.045 176.181 224.333 177.086 224.069 177.767C223.732 178.649 224.205 179.09 225.76 179.33C226.946 179.514 226.112 179.707 223.909 179.763C221.705 179.827 220.262 179.611 220.703 179.282C221.144 178.961 221.585 177.944 221.673 177.022C221.809 175.652 221.2 175.195 218.291 174.538C216.344 174.089 214.918 174.001 215.134 174.354C215.855 175.516 214.004 175.94 212.986 174.851C211.56 173.328 208.283 174.113 208.283 175.989C208.283 176.99 207.682 177.527 206.48 177.591C203.443 177.751 202.345 177.415 200.622 175.82C198.626 173.977 197.585 173.897 196.263 175.492C194.948 177.078 196.519 179.098 199.083 179.098C200.085 179.098 201.111 179.643 201.359 180.3C201.696 181.165 201.279 181.502 199.845 181.502C198.042 181.502 197.457 182.287 197.809 184.21C198.042 185.468 193.169 184.01 191.479 182.327C190.589 181.43 189.403 180.732 188.85 180.764C188.049 180.813 188.049 180.909 188.85 181.229C190.261 181.798 190.1 183.906 188.65 183.906C187.993 183.906 187.448 183.361 187.448 182.688C187.448 181.79 186.927 181.606 185.445 181.974C183.233 182.527 183.121 182.231 184.17 178.561L184.892 176.029L180.564 175.764C177.127 175.548 176.229 175.74 176.221 176.694C176.213 177.415 175.973 177.567 175.62 177.078C175.292 176.63 173.857 176.149 172.423 176.013C169.963 175.788 169.819 175.916 169.819 178.417C169.819 181.037 169.835 181.045 171.069 179.274C171.758 178.296 172.783 177.495 173.344 177.495C174.53 177.495 177.031 180.027 177.031 181.229C177.031 182.175 174.33 183.585 171.245 184.25C169.498 184.635 169.153 184.483 169.538 183.481C169.803 182.8 169.706 182.295 169.322 182.367C168.937 182.439 167.126 182.447 165.307 182.399C162.623 182.319 161.885 181.958 161.413 180.5C160.932 178.986 160.78 178.921 160.467 180.083C160.259 180.845 160.659 182.279 161.348 183.265C162.046 184.258 162.607 185.813 162.607 186.734C162.607 187.656 163.135 189.106 163.785 189.964C164.434 190.821 164.97 192.344 164.987 193.361C165.003 194.371 165.507 196.174 166.116 197.368C166.725 198.554 167.479 200.702 167.783 202.136L168.344 204.74H161.469H154.593L154.529 207.345C154.497 208.779 154.369 210.847 154.249 211.952C153.632 217.738 152.95 224.91 152.614 229.181C152.117 235.431 151.572 241.121 150.611 250.016C150.178 253.982 149.609 260.113 149.353 263.638C148.631 273.19 148.271 277.662 147.87 281.668C147.678 283.656 147.277 287.983 146.989 291.284C146.692 294.586 146.339 298.56 146.203 300.099C146.067 301.638 145.554 306.149 145.065 310.116C144.585 314.082 143.992 320.757 143.743 324.94C142.79 341.328 142.613 343.86 142.301 346.44C142.116 347.907 141.652 349.413 141.275 349.782C140.329 350.703 109.262 350.952 93.1069 350.174C78.9161 349.493 78.9409 349.501 79.7006 344.573C79.9049 343.251 80.2295 339.997 80.4298 337.345C80.6221 334.693 81.143 330.926 81.5757 328.979C82.0165 327.024 82.2328 325.205 82.0645 324.924C81.8963 324.652 82.0725 322.104 82.4652 319.275C82.8498 316.438 83.3467 312.504 83.555 310.516C83.7714 308.529 84.156 305.107 84.4124 302.904C84.6689 300.7 85.0295 297.278 85.2138 295.291C85.3981 293.304 85.7587 289.882 86.0151 287.678C86.2715 285.475 86.6401 282.053 86.8325 280.066C87.0248 278.078 88.1306 268.35 89.2926 258.43C90.4545 248.509 91.7046 237.691 92.0732 234.39C92.4418 231.088 93.3473 223.387 94.0765 217.289C94.8137 211.183 95.2144 205.686 94.974 205.069C94.6535 204.228 92.8986 203.939 88.0825 203.939C82.6335 203.939 81.5517 203.723 81.1831 202.537C80.2455 199.548 79.1958 197.336 78.8728 197.657C78.6869 197.841 78.3784 199.604 78.1869 201.567C77.9954 203.53 77.432 208.026 76.9336 211.552C76.436 215.078 75.8502 219.581 75.6322 221.568C75.4151 223.556 75.0256 226.977 74.7668 229.181C74.5088 231.385 74.2948 233.733 74.2916 234.39C74.2876 235.047 73.9895 237.034 73.6289 238.797C73.2683 240.56 72.7538 244.166 72.4862 246.81C72.2186 249.455 71.8523 252.163 71.672 252.82C71.4917 253.477 71.1456 256.603 70.9036 259.76C70.6616 262.909 70.2873 265.978 70.0726 266.571C69.8586 267.164 69.5189 269.264 69.3185 271.251C69.1182 273.238 68.5717 277.742 68.1037 281.268C66.9217 290.187 65.8343 299.594 65.2782 305.708C65.1788 306.814 65.0194 307.888 64.9256 308.112C64.6788 308.689 63.8919 315.501 63.9071 316.927C63.9143 317.584 63.4223 320.838 62.8125 324.139C62.2035 327.441 61.5216 332.609 61.2972 335.622C60.7338 343.171 60.0559 346.368 58.7922 347.418C57.466 348.516 1.70763 348.668 0.613806 347.57C0.1918 347.153 0.410484 344.637 1.14517 341.472C1.83191 338.507 2.43243 334.749 2.47979 333.122C2.52715 331.487 2.75377 329.82 2.98351 329.42C3.21317 329.011 3.48995 327.753 3.59845 326.615C4.32526 318.986 4.82722 315.044 5.13509 314.539C5.33037 314.227 5.69626 311.694 5.94828 308.914C6.20022 306.133 6.5464 303.633 6.71748 303.352C6.88865 303.08 7.24051 300.7 7.49942 298.072C7.75841 295.443 8.28497 291.957 8.66881 290.323C9.05265 288.696 9.18487 287.174 8.9613 286.949C8.73772 286.725 8.82266 285.899 9.15041 285.106C9.74901 283.664 9.90767 282.694 10.6337 276.059C11.0319 272.421 12.1137 265.377 13.6667 256.314C14.1299 253.614 14.6179 250.368 14.7501 249.102C14.8831 247.844 15.4345 243.749 15.9746 239.999C16.5155 236.249 17.0484 232.29 17.1589 231.184C17.5668 227.138 19.3041 215.59 19.5709 215.158C19.8242 214.749 21.4437 203.835 21.9493 199.131C22.6753 192.376 23.3997 190.316 25.0825 190.212C26.0177 190.156 30.5693 189.836 35.197 189.499L43.611 188.89L32.9933 189.138C24.7155 189.331 22.3756 189.154 22.3756 188.345C22.3756 187.776 22.8564 186.911 23.4438 186.422C24.4927 185.548 33.0919 184.731 43.0356 184.555C45.805 184.507 48.2803 184.13 48.5375 183.713C48.794 183.297 49.0047 181.213 49.0047 179.074C49.0047 176.509 49.3797 175.051 50.1138 174.762C50.7244 174.53 51.2236 173.865 51.2236 173.288C51.2236 172.711 51.9857 171.589 52.9168 170.796C54.1108 169.77 54.3592 169.089 53.759 168.488C53.2277 167.959 53.0915 165.683 53.396 162.422C53.751 158.624 53.6356 157.366 52.9697 157.774C51.323 158.792 31.236 158.495 29.9578 157.438C28.6765 156.372 28.3488 153.455 29.5099 153.455C29.9082 153.455 30.401 151.74 30.6037 149.649C30.9683 145.898 33.2585 129.423 35.5896 113.789C36.2467 109.382 37.1698 103.067 37.641 99.7657C38.1122 96.4642 39.1692 89.7891 39.9905 84.941C40.8119 80.093 42.07 71.6189 42.7872 66.1097C43.5036 60.6005 44.6335 53.1273 45.2978 49.5029C45.9613 45.8776 46.66 41.0672 46.8491 38.8123C47.0391 36.5581 47.5351 33.3937 47.9518 31.7806C48.3685 30.1675 48.9526 26.4485 49.2499 23.5164L49.7908 18.1852L63.9296 17.8638C71.7057 17.6867 78.3648 17.6891 78.7278 17.8694C79.0908 18.0489 84.156 18.1427 89.9817 18.0762C101.024 17.9512 103.308 18.2909 103.308 20.0547C103.308 21.4883 94.365 22.3914 86.8886 21.7134C83.0101 21.3625 80.3577 21.5051 78.9626 22.1397C76.3799 23.3169 72.8724 22.0059 72.8356 19.8495C72.8123 18.5025 72.7691 18.5017 71.9942 19.8327C71.297 21.0291 69.9267 21.235 62.6699 21.235C57.9901 21.235 54.4177 21.4915 54.7311 21.804C55.0444 22.1173 58.9805 22.3882 63.4792 22.405L71.6576 22.437L71.5631 25.6424C71.4613 29.1338 71.3796 29.7716 68.8698 46.8777C67.9314 53.2683 66.9842 59.9394 66.7639 61.7024C66.2462 65.8373 66.1332 66.6434 64.069 80.9344C63.1146 87.5454 62.2147 93.8519 62.0697 94.9577C61.9254 96.0635 61.0383 102.37 60.1 108.981C58.4781 120.408 56.4066 135.345 55.6005 141.435C55.3962 142.974 55.1021 145.137 54.9466 146.243C54.1148 152.133 53.7037 156.941 54.1052 156.059C54.7134 154.729 60.8316 154.729 60.8637 156.059C60.8997 157.534 62.5601 154.417 62.8221 152.381C62.9447 151.428 63.4824 147.589 64.0161 143.839C64.5498 140.089 65.1348 135.762 65.3175 134.223C65.4994 132.684 65.7903 130.521 65.9633 129.415C66.4514 126.306 71.3467 88.539 71.7273 84.941C71.914 83.1781 72.2811 80.4696 72.5423 78.931C73.1064 75.5991 72.854 77.3741 76.5321 50.8844C78.154 39.2049 79.6517 28.0905 79.8617 26.1857C80.2295 22.8666 81.9924 20.9073 83.1543 22.5204C83.4428 22.9154 88.0024 23.2384 93.2912 23.2384H102.907L102.723 25.2417C102.619 26.3435 102.507 28.6874 102.483 30.4504C102.458 32.2133 102.098 34.9531 101.673 36.5381C100.904 39.4373 100.191 44.5434 99.7339 50.4837C99.5897 52.2466 98.9166 57.6556 98.2194 62.5037C97.5303 67.3518 96.769 73.3017 96.5366 75.7257C96.3122 78.1497 95.9036 81.7517 95.6391 83.739C95.3747 85.7264 95.1503 88.7874 95.1423 90.5504C95.1343 92.3133 94.8218 93.948 94.4531 94.1724C94.0845 94.4048 93.7239 96.3921 93.6438 98.5797C93.5717 100.775 93.2111 103.836 92.8585 105.375C92.4979 106.914 92.0091 110.52 91.7687 113.388C91.5283 116.257 91.1036 120.216 90.8311 122.203C90.5587 124.19 90.2542 126.53 90.158 127.412C90.0618 128.293 89.7333 130.633 89.4368 132.62C88.8839 136.266 87.9944 144.825 87.9383 147.044C87.9143 148.126 87.6659 149.456 86.1113 156.861L85.6465 159.064H74.895C68.5893 159.064 63.9344 158.736 63.6443 158.263C62.7388 156.797 61.919 157.43 61.0488 160.266C60.2386 162.911 60.2955 163.071 62.0312 163.071C63.0441 163.071 64.081 162.526 64.335 161.869C64.9376 160.298 66.8071 160.338 68.4282 161.957C69.466 162.999 71.172 163.207 77.0995 163.031C81.159 162.911 86.0151 162.791 87.8822 162.759C89.7894 162.734 91.2879 162.326 91.2879 161.837C91.2879 161.236 93.5236 161.068 98.2915 161.324C104.63 161.653 105.191 161.565 104.229 160.411C103.212 159.185 103.644 157.077 104.766 157.774C105.071 157.959 105.335 157.333 105.359 156.38C105.488 151.876 106.633 139.328 107.675 131.018C108.308 125.953 109.005 119.999 109.222 117.796C109.43 115.592 109.967 111.265 110.416 108.18C110.864 105.095 111.794 97.1614 112.483 90.5504C115.4 62.6359 119.038 31.4344 119.815 27.7619C120.104 26.37 120.617 25.9805 121.755 26.2786C122.604 26.5006 125.2 26.2025 127.524 25.6159L131.755 24.5486L125.946 24.9989C120.48 25.422 120.136 25.3523 120.136 23.8065C120.136 21.9715 120.224 21.9458 132.42 20.0395C136.748 19.3631 140.61 19.0097 141.011 19.2541C141.403 19.4986 142.621 19.1123 143.719 18.3943C144.817 17.6771 145.995 17.2676 146.348 17.4848C146.7 17.7012 151.853 17.238 157.807 16.4551C168.953 14.987 170.62 15.0399 170.62 16.8646C170.62 17.5305 169.194 18.1275 166.814 18.452C164.722 18.7381 161.749 19.299 160.203 19.6989C158.664 20.098 155.803 20.4265 153.848 20.4289C151.444 20.4321 149.753 20.9353 148.639 21.9819C147.173 23.3506 146.588 23.4243 143.583 22.6197C141.003 21.9274 139.544 21.9402 137.517 22.6742C136.05 23.2047 134.151 23.6503 133.302 23.6631C131.956 23.6847 131.923 23.7849 133.045 24.4412C133.855 24.914 135.345 24.9052 137.052 24.4171C138.543 23.9892 140.081 23.639 140.474 23.639C141.315 23.639 141.059 26.5463 136.924 64.1064C135.177 79.9728 132.18 107.867 130.273 126.09C127.684 150.698 126.506 159.401 125.673 159.93C125.048 160.322 122.74 160.675 120.537 160.707C111.554 160.867 112.002 163.432 121.138 164.193L127.348 164.706V161.549C127.348 156.684 127.933 155.859 131.347 155.859C134.023 155.859 136.756 154.312 135.794 153.351C135.594 153.151 135.762 150.666 136.163 147.814C136.555 144.969 137.268 138.31 137.733 133.021C138.198 127.732 138.919 120.16 139.336 116.193C139.753 112.226 140.297 106.641 140.554 103.772C141.027 98.4115 142.413 84.8689 144.585 64.507C145.266 58.1164 146.163 49.6423 146.572 45.6757C148.279 29.4303 149.136 22.4443 149.497 21.8561C150.226 20.6757 152.189 21.2399 152.213 22.6374C152.237 23.9732 152.277 23.9732 153.055 22.6374C154.104 20.8336 155.387 20.8336 155.419 22.6374C155.451 23.9732 155.499 23.9732 156.516 22.6374C157.726 21.0331 159.401 20.7743 159.401 22.1894C159.401 22.7143 159.906 22.4579 160.515 21.6189C161.429 20.376 161.853 20.2775 162.831 21.0852C163.801 21.8889 164.121 21.8352 164.514 20.7999C164.834 19.9681 165.539 19.6925 166.541 20.0106C167.391 20.2791 168.312 20.1236 168.601 19.6652C169.955 17.472 170.62 19.2517 170.315 24.24C169.891 31.1892 168.392 47.7512 167.399 56.4937C166.974 60.2399 166.261 67.6322 165.812 72.921C165.363 78.2098 164.842 84.1557 164.65 86.143C164.458 88.1304 164.089 92.2732 163.841 95.3584C163.584 98.4435 163.039 103.853 162.631 107.378C162.222 110.904 161.645 116.498 161.364 119.799C161.076 123.101 160.723 127.075 160.579 128.614C160.435 130.152 159.89 136.819 159.361 143.422C158.632 152.525 158.103 155.643 157.166 156.332C156.476 156.837 151.596 157.638 146.315 158.127C138.086 158.88 136.579 158.84 135.834 157.83C135.161 156.925 134.945 157.47 134.864 160.266C134.808 162.246 135.081 163.872 135.465 163.872C135.85 163.872 136.163 163.512 136.163 163.071C136.163 162.63 136.707 162.27 137.365 162.27C138.03 162.27 138.567 162.63 138.567 163.071C138.567 163.56 142.445 163.872 148.583 163.872C154.449 163.872 158.6 163.552 158.6 163.103C158.6 162.678 159.594 162.342 160.804 162.35C164.762 162.374 167.006 161.885 167.655 160.867C168.008 160.314 168.753 159.866 169.306 159.866C169.859 159.866 170.668 158.872 171.093 157.662C171.75 155.803 171.622 155.322 170.243 154.609C169.065 153.992 168.673 153.086 168.809 151.283C168.937 149.697 168.576 148.647 167.807 148.351C167.15 148.102 166.613 146.98 166.613 145.866C166.613 144.071 166.958 143.831 169.618 143.775C171.277 143.743 173.256 143.599 174.026 143.446C174.803 143.302 175.428 143.51 175.428 143.911C175.428 144.312 176.325 144.64 177.415 144.64C178.874 144.64 179.539 145.177 179.907 146.644C180.404 148.607 180.556 148.647 188.217 148.647C195.517 148.647 196.078 148.767 196.896 150.45L197.777 152.253L198.314 150.45C198.843 148.703 199.171 148.647 209.084 148.647C218.644 148.647 219.341 148.751 219.734 150.25C220.279 152.325 221.905 152.325 221.905 150.25C221.905 148.727 222.442 148.647 232.323 148.647C242.211 148.647 242.74 148.727 242.74 150.25C242.74 151.131 243.1 151.852 243.541 151.852C243.982 151.852 244.343 152.389 244.343 153.046C244.343 153.703 244.968 155.691 245.737 157.454L247.123 160.667L252.348 160.747C255.217 160.787 261.138 160.956 265.506 161.124C272.309 161.388 273.599 161.228 274.497 160.042C275.899 158.199 275.859 156.276 274.393 155.058C272.742 153.687 272.846 147.477 274.569 144.56C275.434 143.102 276.604 142.236 277.726 142.236C279.834 142.236 282.005 145.017 282.005 147.709C282.005 149.12 282.334 149.496 283.271 149.136C283.968 148.863 284.874 148.647 285.275 148.647C285.683 148.647 286.012 146.844 286.012 144.64C286.012 141.78 285.699 140.634 284.914 140.634C283.44 140.634 282.622 135.297 283.816 133.398C284.321 132.58 285.547 131.707 286.541 131.458C288.304 131.018 294.025 133.173 294.025 134.279C294.025 135.273 291.757 139.255 290.884 139.792C290.419 140.081 289.995 143.254 289.946 146.884C289.89 150.498 289.514 153.455 289.105 153.455C288.696 153.455 288.063 154.264 287.687 155.258C287.174 156.604 287.382 157.43 288.528 158.511C290.435 160.322 289.778 161.524 286.965 161.364C285.779 161.3 284.449 161.332 284.009 161.452C280.395 162.39 278.976 159.569 282.406 158.263C283.512 157.846 284.409 156.949 284.409 156.276C284.409 154.449 283.456 154.881 281.044 157.782L278.88 160.395L280.643 162.951C281.613 164.353 283.311 165.723 284.409 165.996C285.515 166.276 286.861 166.845 287.406 167.278C288.849 168.416 292.407 167.286 292.511 165.659C292.559 164.898 292.535 163.464 292.455 162.478C292.358 161.236 292.967 160.387 294.442 159.713C296.157 158.936 296.357 158.584 295.46 157.902C294.129 156.893 291.621 153.351 291.621 152.477C291.621 152.133 292.166 151.852 292.823 151.852C293.488 151.852 294.025 151.492 294.025 151.051C294.025 150.089 297.215 150.009 298.665 150.931C299.226 151.283 299.458 152.181 299.178 152.918C298.777 153.96 299.13 154.256 300.756 154.256C302.287 154.256 302.84 154.673 302.84 155.811C302.84 156.668 302.479 157.59 302.039 157.862C301.598 158.135 301.237 159.104 301.237 160.01C301.237 161.589 301.582 161.653 308.121 161.308C314.636 160.964 315.733 160.555 316.655 158.095C316.767 157.782 318.41 157.333 320.309 157.093C324.091 156.62 328.483 154.657 328.483 153.431C328.483 153.006 329.428 152.654 330.574 152.654C332.481 152.654 332.633 152.878 332.265 155.258C332.04 156.692 331.688 158.584 331.488 159.465C331.287 160.347 331.271 160.619 331.464 160.066C332.016 158.463 334.597 158.904 335.863 160.811C336.768 162.174 337.169 162.326 337.69 161.492C338.131 160.771 338.042 160.611 337.425 160.988C336.913 161.308 336.496 161.18 336.496 160.715C336.496 160.25 337.041 159.866 337.698 159.866C338.363 159.866 338.9 160.387 338.9 161.028C338.9 161.981 339.349 162.029 341.424 161.308C343.283 160.659 344.333 160.667 345.423 161.348C347.234 162.478 351.721 162.566 351.721 161.468C351.721 161.028 352.266 160.667 352.923 160.667C353.588 160.667 354.125 161.028 354.125 161.468C354.125 161.933 356.802 162.27 360.536 162.27C366.201 162.27 366.947 162.101 366.947 160.811C366.947 158.912 379.624 146.243 381.515 146.243C382.34 146.243 383.013 145.626 383.069 144.841C383.117 144.071 386.331 140.465 390.209 136.827C397.325 130.152 400.603 128.574 400.603 131.819C400.603 132.701 400.338 133.422 400.002 133.422C399.673 133.422 399.32 134.568 399.224 135.97C399.128 137.364 398.671 138.879 398.223 139.328C397.766 139.784 397.397 141.139 397.397 142.349C397.397 143.559 397.077 144.745 396.692 144.985C396.115 145.338 394.969 149.288 394.657 151.989C394.625 152.277 394.328 152.79 393.992 153.118C393.11 154.008 393.262 156.66 394.192 156.66C394.633 156.66 395.041 156.3 395.097 155.859C395.153 155.418 395.29 154.697 395.394 154.256C395.506 153.816 395.642 153.094 395.698 152.654C395.754 152.213 396.428 151.884 397.197 151.916C398.038 151.957 398.199 152.141 397.598 152.381C397.053 152.606 396.604 153.391 396.612 154.12C396.62 155.274 396.724 155.298 397.397 154.256C398.086 153.191 398.175 153.191 398.175 154.256C398.175 154.913 397.83 156.003 397.397 156.66C396.756 157.654 396.62 157.662 396.612 156.724C396.604 156.099 396.404 155.787 396.163 156.027C395.29 156.901 399.176 162.27 400.683 162.27C401.7 162.27 402.237 162.871 402.301 164.073C402.374 165.427 402.486 165.531 402.758 164.473C403.215 162.751 405.411 162.606 405.411 164.305C405.411 165.267 405.747 165.355 406.965 164.706C409.089 163.56 412.406 163.656 412.895 164.874C413.119 165.427 413.328 165.066 413.36 164.073C413.424 162.302 415.435 161.516 415.964 163.047C416.301 164.049 422.639 164.329 426.045 163.504C428.233 162.975 428.649 163.095 428.649 164.273C428.649 165.299 428.922 165.451 429.651 164.842C430.877 163.832 454.292 163.768 454.292 164.778C454.292 166.172 456.608 165.427 457.097 163.872C457.593 162.31 459.901 161.573 459.901 162.975C459.901 163.368 460.839 163.864 461.977 164.081L464.044 164.473L463.515 159.89C463.083 156.196 463.235 155.042 464.301 153.976C465.863 152.421 469.229 152.221 469.742 153.655C469.942 154.208 470.375 154.409 470.703 154.104C471.44 153.407 471.296 140.634 470.375 125.809C469.99 119.639 469.677 114.045 469.669 113.388C469.669 112.731 469.453 108.035 469.197 102.971C468.171 82.8736 467.939 78.1369 467.514 68.113C467.265 62.3835 466.913 56.2533 466.721 54.4904C466.528 52.7274 466.136 44.4336 465.847 36.0597C465.559 27.6858 465.158 20.5603 464.966 20.2262C463.98 18.545 465.687 16.5865 468.147 16.5737C470.783 16.5601 477.13 15.8437 477.13 15.56C477.13 15.4727 478.412 15.3252 479.983 15.2315C481.545 15.1377 484.126 14.818 485.712 14.5207L488.597 13.9798L489.062 17.8077C489.31 19.9128 489.719 24.8811 489.959 28.8477L490.761 42.0697C491.105 47.5428 492.115 64.8132 493.189 83.3384C493.421 87.305 493.766 92.8903 493.95 95.759C494.134 98.6278 494.503 104.574 494.767 108.981C495.024 113.388 495.392 119.334 495.577 122.203C495.753 125.072 496.121 131.915 496.378 137.428C496.642 142.942 497.043 148.431 497.275 149.641C497.516 150.931 497.251 152.277 496.626 152.894C495.448 154.048 473.187 157.037 471.857 156.22C471.32 155.891 471.12 157.197 471.28 159.938C471.505 163.784 471.721 164.217 473.724 164.754C475.76 165.291 475.928 165.155 475.928 162.999C475.928 160.138 477.154 160.026 479.606 162.67C481.794 165.034 484.919 165.267 488.749 163.352C491.177 162.141 491.482 162.141 492.339 163.311C493.141 164.409 496.017 164.61 513.062 164.778C523.944 164.882 532.39 165.259 531.837 165.611C531.148 166.044 531.404 166.252 532.622 166.26C533.696 166.268 534.425 165.788 534.425 165.074C534.425 163.464 535.411 163.56 538.648 165.475L541.365 167.07L540.595 162.326C539.898 157.951 539.698 157.63 538.135 158.191C537.198 158.535 533.183 158.872 529.217 158.952C525.25 159.024 520.546 159.297 518.759 159.545C516.539 159.858 515.217 159.657 514.616 158.928C514.087 158.295 513.198 149.024 512.445 136.218C511.747 124.327 510.658 106.657 510.017 96.961C509.384 87.2649 508.446 72.4803 507.933 64.1064C507.428 55.7324 506.571 42.5705 506.026 34.8577C505.489 27.1449 505.321 20.5179 505.657 20.1308C505.994 19.7438 505.85 18.7605 505.345 17.9472C504.744 16.9872 504.696 16.2003 505.201 15.7074C505.93 14.9943 515.57 13.8924 531.22 12.7329C534.97 12.4556 541.277 11.9444 545.243 11.5982C557.528 10.5252 561.655 10.647 562.215 12.1006C562.488 12.8058 562.207 13.7025 561.59 14.092C560.941 14.503 560.853 14.8051 561.382 14.8124C561.879 14.8188 562.512 16.3565 562.784 18.23C563.289 21.695 567.007 62.4428 569.275 89.3484C569.964 97.506 570.702 105.976 570.91 108.18C571.583 115.416 572.833 129.704 573.314 135.826C573.578 139.127 574.107 144.544 574.5 147.846C575.349 155.082 574.732 156.051 569.115 156.348C550.588 157.317 549.018 157.542 548.537 159.337C547.816 162.029 547.968 164.674 548.849 164.674C549.29 164.674 549.651 165.756 549.651 167.078C549.651 168.4 549.29 169.482 548.849 169.482C548.408 169.482 548.048 170.035 548.048 170.7C548.048 171.373 547.19 172.254 546.133 172.655C545.075 173.056 544.049 173.857 543.857 174.442C543.4 175.788 545.772 180.652 546.902 180.684C547.375 180.692 548.096 182.592 548.505 184.907C549.25 189.082 549.282 189.122 553.016 190.044C555.092 190.557 560.501 191.174 565.036 191.406C574.796 191.927 573.322 191.663 574.836 193.177C577.385 195.725 576.303 196.086 567.48 195.669L558.866 195.253L566.623 196.19C570.886 196.703 574.572 197.328 574.804 197.568C575.045 197.809 575.437 200.333 575.678 203.178C575.926 206.023 576.295 209.789 576.503 211.552C576.712 213.315 577.072 217.466 577.313 220.767C577.545 224.069 577.906 228.043 578.106 229.582C578.306 231.12 578.667 235.271 578.915 238.797C579.156 242.323 579.524 246.474 579.733 248.012C579.933 249.551 580.47 255.505 580.911 261.234C581.351 266.964 581.864 273.27 582.048 275.258C582.225 277.245 582.601 281.925 582.874 285.675C583.154 289.425 583.723 296.453 584.14 301.301C584.565 306.149 585.086 312.279 585.31 314.924C586.872 333.883 587.353 339.829 587.81 346.24C588.315 353.267 588.411 353.548 590.567 354.357C592.137 354.958 593.051 354.95 593.66 354.333C594.285 353.716 594.525 353.949 594.525 355.167C594.525 356.705 594.157 356.841 590.719 356.577C588.627 356.417 581.415 356.264 574.692 356.24C562.568 356.2 562.472 356.184 562.472 354.389C562.464 352.346 560.541 326.231 559.331 311.718C558.89 306.43 558.329 299.041 558.089 295.291C557.319 283.407 556.021 266.139 555.685 263.438C555.364 260.834 555.957 260.369 559.066 260.778C559.619 260.842 560.068 260.497 560.068 260C560.068 259.423 559.226 259.287 557.664 259.632C555.268 260.161 555.26 260.161 555.156 256.29C555.092 254.159 554.931 251.138 554.795 249.567C554.659 247.996 553.809 236.633 552.904 224.325C552.006 212.008 551.061 200.405 550.812 198.53L550.356 195.124L554.21 194.996C557.359 194.892 557.552 194.812 555.26 194.563C553.721 194.395 551.918 194.059 551.253 193.81C550.596 193.554 544.642 193.257 538.031 193.129L526.011 192.913L533.624 193.818L541.237 194.724L541.781 199.532C542.086 202.176 542.543 207.401 542.807 211.151C549.218 302.543 549.57 307.776 551.79 342.57C552.087 347.201 552.359 351.881 552.391 352.987C552.455 354.95 552.319 354.998 545.932 355.223C539.89 355.439 539.434 355.575 539.81 357.026C540.171 358.38 539.81 358.596 537.19 358.596C533.8 358.596 533.76 357.899 537.142 357.619C539.025 357.466 539.145 357.306 538.039 356.497C537.046 355.768 536.989 355.455 537.791 355.135C538.368 354.902 536.493 354.694 533.624 354.662C530.17 354.63 528.808 354.862 529.585 355.351C530.218 355.752 531.092 355.872 531.524 355.607C531.973 355.327 532.077 355.704 531.765 356.505C531.452 357.322 531.564 357.683 532.029 357.386C532.47 357.122 532.823 357.282 532.823 357.747C532.823 358.781 529.802 358.693 527.614 357.595V357.595ZM107.715 347.378C108.396 346.288 111.594 346.368 112.732 347.506C114.334 349.101 115.993 346.809 116.49 342.313C116.738 340.029 117.123 335.822 117.339 332.954C117.556 330.085 117.908 326.303 118.125 324.54C118.557 320.894 119.11 315.068 119.775 306.91C120.024 303.825 120.384 299.859 120.561 298.096C120.737 296.333 121.114 292.55 121.386 289.682C121.658 286.813 121.987 283.576 122.107 282.47C122.235 281.364 122.572 277.582 122.868 274.056C123.165 270.53 123.59 266.707 123.814 265.562C124.038 264.416 124.367 260.994 124.551 257.949C124.736 254.912 125.064 250.977 125.288 249.214C125.513 247.451 125.889 244.022 126.138 241.602C126.386 239.182 126.731 236.113 126.907 234.79C127.083 233.468 127.452 229.862 127.733 226.777C128.005 223.692 128.558 218.283 128.959 214.757C129.351 211.231 129.888 205.638 130.137 202.336C130.826 193.345 131.395 190.324 132.428 190.212C132.941 190.148 136.243 190.124 139.769 190.156L146.179 190.212L141.772 189.491C137.998 188.874 132.484 188.61 126.146 188.746C125.264 188.762 119.142 188.778 112.539 188.778C105.944 188.778 99.7179 188.978 98.7162 189.235C97.2738 189.595 96.8972 189.355 96.8972 188.049C96.8972 187.143 97.3379 186.133 97.8748 185.805C98.4037 185.476 103.18 185.26 108.484 185.324C114.118 185.396 117.66 185.156 117.011 184.755C116.378 184.362 116.121 183.497 116.41 182.736C116.995 181.213 118.533 181.806 118.533 183.553C118.533 185.212 123.029 185.076 123.678 183.393C123.958 182.664 124.086 182.039 123.966 181.991C122.091 181.253 120.344 179.763 119.551 178.216C118.605 176.389 118.557 176.373 118.549 178C118.541 178.937 118.052 180.099 117.467 180.596C116.49 181.406 107.563 181.75 93.147 181.542L88.2027 181.47L89.5009 184.891C90.2221 186.774 91.4562 189.17 92.2495 190.22C93.0428 191.278 93.6919 192.76 93.6919 193.53C93.6919 195.116 95.575 196.983 96.3683 196.182C96.6648 195.894 96.8972 194.491 96.8972 193.065V190.469L105.111 189.924C109.63 189.627 115.312 189.507 117.732 189.651C121.875 189.9 122.131 190.036 122.003 191.919C121.859 193.922 121.057 200.95 120.545 204.74C120.4 205.846 120.04 209.084 119.751 211.952C119.455 214.821 119.094 218.059 118.95 219.164C118.798 220.27 118.477 223.155 118.229 225.575C117.98 227.995 117.58 231.785 117.339 233.989C117.099 236.193 116.73 239.799 116.506 242.002C116.289 244.206 115.055 255.93 113.757 268.046C112.459 280.162 111.161 293.512 110.88 297.695C110.6 301.878 110.231 305.532 110.063 305.797C109.703 306.381 108.396 318.073 107.739 326.543C107.483 329.845 107.106 334.172 106.898 336.159C105.808 346.665 105.752 348.179 106.465 348.179C106.882 348.179 107.443 347.818 107.715 347.378V347.378ZM35.2755 343.155C35.5992 341.937 36.2587 337.617 36.7411 333.547C37.2227 329.476 37.9704 323.618 38.4015 320.533C39.569 312.183 43.0156 285.98 43.6711 280.466C43.9852 277.822 44.3314 274.937 44.4395 274.056C44.5477 273.174 45.5566 266.323 46.6817 258.83C47.8059 251.338 48.9262 242.684 49.1698 239.598C49.4134 236.513 49.9824 231.649 50.4327 228.78C50.8839 225.912 51.7717 219.421 52.4056 214.356C53.0402 209.292 53.7727 203.522 54.0339 201.535C54.2951 199.548 54.7607 195.942 55.0692 193.522L55.6309 189.114L64.6459 188.89C69.6038 188.762 73.6609 188.401 73.6609 188.081C73.6609 187.648 48.9406 187.44 46.4156 187.848C46.1953 187.88 46.0093 190.348 46.0013 193.321C45.9941 196.294 45.5077 201.791 44.9203 205.542C44.333 209.292 43.7472 213.251 43.619 214.356C43.0252 219.453 41.5651 229.261 41.2366 230.359C40.8808 231.561 39.3671 242.379 37.1995 259.231C36.0872 267.877 34.8732 276.828 33.6672 285.274C33.2898 287.919 33.1207 290.323 33.2914 290.611C33.4621 290.908 33.0902 293.608 32.466 296.621C31.2031 302.711 27.6989 327.473 26.0762 341.768L25.6667 345.374L30.1758 345.366C34.4157 345.358 34.721 345.222 35.2755 343.155V343.155ZM437.785 158.952C437.409 158.351 437.056 154.256 437 149.849C436.848 138.566 435.91 107.17 435.469 98.5637C435.269 94.5971 434.924 85.7584 434.7 78.931C434.484 72.0997 434.067 59.4787 433.771 50.8844C433.482 42.2901 433.202 32.013 433.154 28.0464L433.057 20.8344L435.461 20.7286C439.981 20.5307 448.283 19.5282 451.744 18.7637C453.644 18.343 455.495 18.1788 455.847 18.3983C456.2 18.6179 456.729 23.9436 457.025 30.2332C457.322 36.5229 457.73 44.7341 457.939 48.4804C458.139 52.2266 458.668 64.1264 459.109 74.9244C459.541 85.7263 460.086 98.7079 460.319 103.772C462.691 156.436 462.691 156.404 461.008 157.269C460.183 157.694 456.08 158.295 451.889 158.592C447.706 158.888 442.97 159.337 441.375 159.585C439.388 159.898 438.25 159.697 437.785 158.952V158.952ZM432.809 18.23C433.025 17.0946 435.061 16.492 443.483 15.0624C449.212 14.0912 454.741 13.4757 455.775 13.6945C456.809 13.9133 458.099 13.7258 458.636 13.277C459.173 12.8291 460.671 12.4677 461.961 12.4741C463.252 12.4805 469.358 11.7985 475.528 10.9579C487.083 9.38573 488.75 9.42339 488.75 11.2568C488.75 12.886 488.333 12.9845 476.73 14.0783C468.444 14.8604 465.423 15.4614 463.805 16.6482C462.154 17.8558 461.096 18.057 458.997 17.5601C457.514 17.2099 456.12 16.9567 455.895 16.9976C455.679 17.0393 453.019 17.3053 449.998 17.589C446.968 17.8735 442.681 18.4496 440.47 18.8695C434.331 20.033 432.496 19.8792 432.809 18.23V18.23Z" fill="#050505"/>
<path d="M546.541 154.128C547.455 154.705 548.336 155.042 548.497 154.881C548.753 154.617 547.767 140.666 545.676 114.991C545.227 109.478 544.674 102.09 544.45 98.5637C543.464 83.3063 542.078 65.7387 541.253 58.0964C541.044 56.1131 540.652 51.4253 540.395 47.679C540.139 43.9328 539.81 39.6056 539.666 38.063C539.522 36.5205 539.145 31.0658 538.825 25.9413L538.256 16.6242L542.551 16.5865C550.051 16.5208 559.371 15.7908 559.932 15.2258C561.013 14.1296 538.071 15.8116 535.739 17C533.504 18.1355 532.55 18.1018 529.217 16.7684C527.894 16.2379 527.774 16.3261 528.543 17.2789C529.056 17.9119 529.713 21.8561 530.002 26.043C530.29 30.23 530.683 35.639 530.883 38.063C531.084 40.4871 531.597 47.6238 532.029 53.923C532.462 60.2215 532.975 66.1714 533.183 67.145C533.383 68.1179 533.736 71.9795 533.968 75.7257C534.714 87.7217 536.036 107.082 536.813 117.395C537.23 122.908 537.967 133.181 538.456 140.233C538.937 147.285 539.474 153.479 539.642 154C539.874 154.729 540.523 154.737 542.415 154.024C544.346 153.295 545.243 153.319 546.541 154.128V154.128ZM479.101 347.177C479.069 337.682 478.58 326.014 477.555 310.116C477.154 303.945 476.793 294.057 476.745 288.143C476.697 282.229 476.537 277.181 476.385 276.924C476.232 276.668 475.872 269.248 475.583 260.433C475.046 244.11 474.846 239.013 473.828 216.36C473.516 209.308 473.227 201.375 473.187 198.73L473.123 193.922L477.13 193.522C481.04 193.121 481.072 193.097 478.46 192.52C476.978 192.191 474.91 192.143 473.852 192.408C472.522 192.744 471.921 192.552 471.921 191.799C471.921 189.491 474.678 189.042 486.345 189.483C497.692 189.908 497.973 189.956 498.229 191.751C498.445 193.305 498.205 193.514 496.626 193.137C495.601 192.889 493.141 193.017 491.153 193.418L487.547 194.147L491.554 194.331C493.758 194.427 495.985 194.459 496.506 194.395C497.019 194.331 497.636 194.587 497.86 194.956C498.277 195.629 499.495 213.467 500.353 231.585C500.609 236.874 500.97 243.91 501.162 247.211C501.354 250.513 501.715 257.725 501.963 263.238C502.212 268.751 502.58 276.315 502.773 280.066C502.973 283.816 503.317 290.483 503.534 294.89C503.758 299.298 504.127 306.51 504.351 310.917C504.576 315.324 504.944 323.081 505.169 328.146C505.401 333.21 505.81 341.416 506.082 346.376L506.571 355.391H492.852H479.133L479.101 347.177ZM527.614 357.595C526.196 356.882 526.011 355.96 525.971 349.477C525.931 342.145 525.402 331.343 524.008 309.715C523.599 303.32 523.062 294.129 522.822 289.281C522.574 284.433 522.205 278.479 521.997 276.059C521.796 273.639 521.444 267.685 521.211 262.837C520.987 257.989 520.626 252.035 520.418 249.615C520.033 245.2 519.649 238.925 518.807 223.171C518.559 218.539 518.158 212.505 517.91 209.749L517.469 204.74H511.419H505.369L505.946 201.735C506.258 200.085 506.515 198.121 506.507 197.384C506.499 196.639 506.996 195.613 507.613 195.1C508.238 194.579 508.983 192.849 509.287 191.238C509.584 189.627 510.353 187.504 511.002 186.51C512.172 184.715 512.156 184.707 507.741 184.707C505.305 184.707 503.181 184.33 503.029 183.866C502.853 183.329 498.429 183.016 490.849 183.008C478.388 182.984 476.729 182.768 476.729 181.133C476.729 180.484 475.543 180.171 473.324 180.22C470.182 180.292 469.902 180.131 469.669 178.096C469.517 176.822 468.924 175.892 468.251 175.892C467.41 175.892 467.225 176.445 467.586 177.896C467.899 179.13 467.746 179.899 467.201 179.899C466.713 179.899 466.312 180.404 466.312 181.013C466.312 182.055 464.693 183.104 463.075 183.104C462.69 183.104 461.929 181.574 461.4 179.699L460.422 176.293L459.957 178.697C459.613 180.492 458.988 181.165 457.497 181.365C454.861 181.726 454.292 182.351 453.515 185.813L452.858 188.714H456.808C460.646 188.714 464.709 190.445 464.709 192.071C464.709 192.496 463.539 192.776 462.105 192.704C460.679 192.624 457.698 192.656 455.494 192.784C451.704 192.993 451.792 193.025 457.048 193.466C462.161 193.882 462.642 194.083 463.147 195.974C463.443 197.104 463.94 206.119 464.236 216.007C464.541 225.896 464.934 236.329 465.118 239.198C465.422 244.062 465.711 252.267 466.721 284.473C467.217 300.203 467.706 315.557 468.379 336.56C468.66 345.374 469.229 353.003 469.637 353.508C470.126 354.109 470.022 354.582 469.349 354.846C468.692 355.111 468.828 355.287 469.718 355.327C470.495 355.359 471.12 354.878 471.12 354.245C471.12 352.955 473.876 351.809 475.119 352.578C475.567 352.859 475.928 353.572 475.928 354.173C475.928 354.926 474.309 355.439 470.727 355.824C463.716 356.569 444.115 355.944 443.105 354.942C442.657 354.486 442.128 347.626 441.903 339.34C441.094 309.403 440.677 292.871 440.293 275.258C439.868 255.914 439.01 225.815 438.658 217.962C438.538 215.318 438.401 211.079 438.353 208.547L438.265 203.939H435.461C433.305 203.939 432.672 203.619 432.72 202.537C432.832 199.764 435.18 187.656 436.302 184.066C436.831 182.359 436.695 182.263 434.563 182.784C433.297 183.096 432.079 183.585 431.855 183.874C431.254 184.659 426.245 186.574 425.845 186.173C425.652 185.981 425.404 184.643 425.292 183.193C425.107 180.692 425.027 180.636 423.865 182.071C422.567 183.673 419.394 185.276 420.243 183.898C420.516 183.457 420.347 183.104 419.883 183.104C419.418 183.104 419.033 183.649 419.033 184.306C419.033 186.085 416.886 185.765 416.397 183.906C416.172 183.032 416.172 180.861 416.413 179.09C416.757 176.541 417.246 175.772 418.769 175.388C420.564 174.939 420.596 174.835 419.258 173.833C418.048 172.919 417.687 172.959 416.83 174.081C416.285 174.803 415.828 176.205 415.828 177.199C415.828 179.37 414.434 180.42 413.2 179.186C412.086 178.08 409.417 178.016 409.417 179.098C409.417 179.538 408.792 179.907 408.015 179.915C406.821 179.923 406.789 180.035 407.815 180.7C408.656 181.237 409.289 181.117 409.906 180.284C410.916 178.937 412.623 178.697 412.623 179.899C412.623 180.34 413.167 180.7 413.825 180.7C414.698 180.7 415.027 181.59 415.027 183.906C415.027 186.222 414.698 187.111 413.825 187.111C413.167 187.111 412.623 186.75 412.623 186.31C412.623 185.869 412.174 185.597 411.621 185.709C411.076 185.821 410.619 185.364 410.619 184.707C410.619 184.05 409.602 183 408.359 182.375C406.781 181.582 406.212 180.797 406.476 179.771C406.773 178.665 406.436 178.312 405.138 178.36C404.185 178.393 403.864 178.601 404.409 178.825C404.962 179.05 405.411 180.46 405.411 181.966C405.411 184.17 405.098 184.707 403.808 184.707C402.926 184.707 402.205 185.028 402.205 185.42C402.205 186.366 398.647 187.231 397.141 186.654C396.492 186.406 395.771 185.5 395.554 184.651C395.073 182.816 392.958 182.592 392.301 184.306C391.772 185.685 388.583 185.957 388.583 184.627C388.583 184.146 390.434 181.934 392.693 179.731C395.835 176.646 396.54 175.548 395.698 175.011C394.785 174.434 394.809 174.314 395.795 174.29C396.868 174.266 396.868 174.178 395.795 173.488C394.825 172.863 394.937 172.711 396.396 172.703C397.846 172.687 398.199 172.23 398.199 170.403C398.199 167.943 396.356 165.82 393.791 165.339C392.629 165.122 392.189 164.401 392.189 162.726C392.189 161.452 391.788 160.274 391.291 160.106C390.738 159.914 390.538 160.531 390.762 161.709C391.283 164.441 384.327 170.596 381.515 169.89C379.728 169.442 379.68 169.506 380.874 170.7C381.587 171.413 382.172 172.479 382.172 173.056C382.172 173.641 382.717 174.33 383.374 174.578C384.039 174.835 384.576 175.556 384.576 176.181C384.576 177.495 382.885 178.296 380.104 178.296C378.646 178.296 378.149 177.848 378.101 176.493C378.061 175.315 377.885 175.099 377.58 175.868C377.324 176.509 376.362 177.711 375.441 178.529C374.519 179.346 374.271 179.755 374.888 179.434C375.633 179.05 375.817 179.162 375.433 179.787C375.112 180.308 374.567 180.556 374.231 180.34C373.886 180.131 372.844 180.66 371.915 181.526C369.976 183.329 368.485 183.521 367.107 182.143C366.362 181.398 366.145 181.574 366.145 182.944C366.145 183.914 366.522 184.707 366.987 184.707C367.443 184.707 368.75 185.637 369.887 186.774C371.666 188.545 371.835 189.114 371.073 190.781C370.24 192.616 367.748 193.538 367.748 192.015C367.748 191.623 367.027 191.118 366.145 190.885C364.535 190.461 363.845 187.912 365.344 187.912C365.785 187.912 366.145 187.552 366.145 187.111C366.145 186.67 365.608 186.31 364.943 186.31C364.238 186.31 363.733 187.055 363.717 188.113C363.669 191.102 358.605 195.926 355.496 195.926C354.005 195.926 348.933 192.52 347.138 190.316C346.601 189.659 346.152 188.481 346.136 187.712C346.12 186.582 345.375 186.302 342.306 186.262C340.214 186.238 336.432 186.149 333.9 186.061C327.922 185.861 327.144 187.424 332.537 188.802C336.103 189.715 336.496 190.044 336.496 192.071C336.496 193.538 336.921 194.323 337.698 194.323C338.443 194.323 338.9 193.57 338.9 192.336C338.9 190.877 339.445 190.212 340.919 189.844C343.411 189.219 345.142 190.557 345.463 193.361C345.647 194.908 346.376 195.717 348.115 196.31C351.617 197.488 352.651 198.746 352.058 201.102C351.601 202.929 351.16 203.138 347.674 203.138C345.551 203.138 343.58 202.777 343.307 202.336C341.472 199.355 337.858 205.173 338.179 210.598C338.619 218.147 339.597 217.562 326.527 217.562H314.956L314.708 220.967C314.483 224.077 314.259 224.397 312.095 224.645C309.13 224.982 307.648 223.131 307.648 219.068C307.648 216.768 308.025 215.951 309.251 215.558C311.134 214.965 311.286 214.108 309.755 212.834C308.882 212.113 308.553 212.265 308.225 213.531C307.6 215.919 305.604 216.312 303.705 214.42C302.792 213.499 302.039 212.425 302.039 212.016C302.039 211.616 301.638 211.151 301.141 210.983C300.083 210.63 300.957 205.542 302.079 205.542C302.471 205.542 302.591 205.013 302.335 204.364C301.942 203.322 301.742 203.322 300.7 204.364C299.178 205.886 297.231 205.878 297.231 204.34C297.231 203.683 297.615 203.138 298.08 203.138C298.545 203.138 298.705 203.586 298.425 204.139C298.144 204.692 298.392 204.58 298.977 203.891C299.562 203.202 300.62 202.417 301.325 202.152C302.039 201.888 302.816 200.918 303.056 199.996C303.401 198.69 303.12 198.33 301.766 198.314C300.5 198.306 300.324 198.121 301.117 197.617C301.71 197.24 302.063 196.254 301.902 195.429C301.686 194.315 301.045 193.986 299.442 194.179C297.303 194.427 297.279 194.379 297.423 189.916C297.503 187.295 297.19 185.172 296.662 184.851C296.165 184.547 295.844 183.152 295.94 181.766L296.117 179.234L294.161 180.764C293.088 181.614 291.132 182.303 289.818 182.303C287.727 182.303 287.478 182.543 287.799 184.234C288.087 185.733 287.879 186.069 286.893 185.725C286.036 185.436 286.148 185.717 287.214 186.574C288.648 187.728 288.672 187.864 287.414 187.888C286.485 187.904 286.036 188.513 286.076 189.715C286.116 190.709 286.324 191.07 286.549 190.517C287.118 189.106 288.224 189.267 290.139 191.054C292.198 192.977 291.469 194.323 288.368 194.323C286.597 194.323 286.012 194.7 286.012 195.83C286.012 196.671 286.733 197.528 287.615 197.761C288.496 197.993 289.217 197.849 289.217 197.456C289.217 196.246 291.421 196.639 291.91 197.929C292.206 198.698 291.886 199.155 290.996 199.187C289.85 199.235 289.882 199.355 291.221 199.932C292.503 200.485 292.559 200.63 291.485 200.678C289.906 200.742 286.477 205.942 287.222 207.152C287.502 207.609 287.262 207.89 286.677 207.761C285.852 207.593 285.523 209.829 285.211 217.562L284.81 227.578L280.29 228.3C273.96 229.301 273.191 228.844 273.191 224.085C273.191 219.821 273.832 219.164 277.983 219.164C280.346 219.164 281.981 217.153 279.713 217.033C278.992 216.993 269.024 216.736 257.565 216.464C245.633 216.175 236.626 215.639 236.481 215.206C236.345 214.789 235.712 214.645 235.087 214.885C234.454 215.126 233.717 214.741 233.444 214.036C232.707 212.113 233.789 208.747 235.143 208.747C236.578 208.747 236.802 203.931 235.44 202.561C234.783 201.904 234.815 199.796 235.552 194.587C236.241 189.787 236.754 188.025 237.147 189.114C237.467 189.996 237.539 191.046 237.307 191.438C237.074 191.839 237.267 191.927 237.732 191.639C238.204 191.35 238.381 190.34 238.132 189.387C237.828 188.209 237.972 187.84 238.613 188.233C239.246 188.626 239.535 187.888 239.535 185.861C239.535 183.329 239.759 182.976 241.113 183.329C241.979 183.553 243.1 183.233 243.613 182.624C244.399 181.678 243.293 181.502 236.498 181.502C229.277 181.502 228.484 181.357 228.725 180.099C228.877 179.33 229.053 177.8 229.117 176.694C229.205 175.091 229.342 174.971 229.79 176.093C230.303 177.391 230.407 177.375 231.313 175.924C232.667 173.769 231.457 173.304 227.803 174.578C226.104 175.171 224.173 175.5 223.508 175.307C222.514 175.027 222.498 175.099 223.428 175.748C224.045 176.181 224.333 177.086 224.069 177.767C223.732 178.649 224.205 179.09 225.76 179.33C226.946 179.514 226.112 179.707 223.909 179.763C221.705 179.827 220.262 179.611 220.703 179.282C221.144 178.961 221.585 177.944 221.673 177.022C221.809 175.652 221.2 175.195 218.291 174.538C216.344 174.089 214.918 174.001 215.134 174.354C215.855 175.516 214.004 175.94 212.986 174.851C211.56 173.328 208.283 174.113 208.283 175.989C208.283 176.99 207.682 177.527 206.48 177.591C203.443 177.751 202.345 177.415 200.622 175.82C198.626 173.977 197.585 173.897 196.263 175.492C194.948 177.078 196.519 179.098 199.083 179.098C200.085 179.098 201.111 179.643 201.359 180.3C201.696 181.165 201.279 181.502 199.845 181.502C198.042 181.502 197.457 182.287 197.809 184.21C198.042 185.468 193.169 184.01 191.479 182.327C190.589 181.43 189.403 180.732 188.85 180.764C188.049 180.813 188.049 180.909 188.85 181.229C190.261 181.798 190.1 183.906 188.65 183.906C187.993 183.906 187.448 183.361 187.448 182.688C187.448 181.79 186.927 181.606 185.445 181.974C183.233 182.527 183.121 182.231 184.17 178.561L184.892 176.029L180.564 175.764C177.127 175.548 176.229 175.74 176.221 176.694C176.213 177.415 175.973 177.567 175.62 177.078C175.292 176.63 173.857 176.149 172.423 176.013C169.963 175.788 169.819 175.916 169.819 178.417C169.819 181.037 169.835 181.045 171.069 179.274C171.758 178.296 172.783 177.495 173.344 177.495C174.53 177.495 177.031 180.027 177.031 181.229C177.031 182.175 174.33 183.585 171.245 184.25C169.498 184.635 169.153 184.483 169.538 183.481C169.803 182.8 169.706 182.295 169.322 182.367C168.937 182.439 167.126 182.447 165.307 182.399C162.623 182.319 161.885 181.958 161.413 180.5C160.932 178.986 160.78 178.921 160.467 180.083C160.259 180.845 160.659 182.279 161.348 183.265C162.046 184.258 162.607 185.813 162.607 186.734C162.607 187.656 163.135 189.106 163.785 189.964C164.434 190.821 164.97 192.344 164.987 193.361C165.003 194.371 165.507 196.174 166.116 197.368C166.725 198.554 167.479 200.702 167.783 202.136L168.344 204.74H161.469H154.593L154.529 207.345C154.497 208.779 154.369 210.847 154.249 211.952C153.632 217.738 152.95 224.91 152.614 229.181C152.117 235.431 151.572 241.121 150.611 250.016C150.178 253.982 149.609 260.113 149.353 263.638C148.631 273.19 148.271 277.662 147.87 281.668C147.678 283.656 147.277 287.983 146.989 291.284C146.692 294.586 146.339 298.56 146.203 300.099C146.067 301.638 145.554 306.149 145.065 310.116C144.585 314.082 143.992 320.757 143.743 324.94C142.79 341.328 142.613 343.86 142.301 346.44C142.116 347.907 141.652 349.413 141.275 349.782C140.329 350.703 109.262 350.952 93.1069 350.174C78.9161 349.493 78.9409 349.501 79.7006 344.573C79.9049 343.251 80.2295 339.997 80.4298 337.345C80.6221 334.693 81.143 330.926 81.5757 328.979C82.0165 327.024 82.2328 325.205 82.0645 324.924C81.8963 324.652 82.0725 322.104 82.4652 319.275C82.8498 316.438 83.3467 312.504 83.555 310.516C83.7714 308.529 84.156 305.107 84.4124 302.904C84.6689 300.7 85.0295 297.278 85.2138 295.291C85.3981 293.304 85.7587 289.882 86.0151 287.678C86.2715 285.475 86.6401 282.053 86.8325 280.066C87.0248 278.078 88.1306 268.35 89.2926 258.43C90.4545 248.509 91.7046 237.691 92.0732 234.39C92.4418 231.088 93.3473 223.387 94.0765 217.289C94.8137 211.183 95.2144 205.686 94.974 205.069C94.6535 204.228 92.8986 203.939 88.0825 203.939C82.6335 203.939 81.5517 203.723 81.1831 202.537C80.2455 199.548 79.1958 197.336 78.8728 197.657C78.6869 197.841 78.3784 199.604 78.1869 201.567C77.9954 203.53 77.432 208.026 76.9336 211.552C76.436 215.078 75.8502 219.581 75.6322 221.568C75.4151 223.556 75.0256 226.977 74.7668 229.181C74.5088 231.385 74.2948 233.733 74.2916 234.39C74.2876 235.047 73.9895 237.034 73.6289 238.797C73.2683 240.56 72.7538 244.166 72.4862 246.81C72.2186 249.455 71.8523 252.163 71.672 252.82C71.4917 253.477 71.1456 256.603 70.9036 259.76C70.6616 262.909 70.2873 265.978 70.0726 266.571C69.8586 267.164 69.5189 269.264 69.3185 271.251C69.1182 273.238 68.5717 277.742 68.1037 281.268C66.9217 290.187 65.8343 299.594 65.2782 305.708C65.1788 306.814 65.0194 307.888 64.9256 308.112C64.6788 308.689 63.8919 315.501 63.9071 316.927C63.9143 317.584 63.4223 320.838 62.8125 324.139C62.2035 327.441 61.5216 332.609 61.2972 335.622C60.7338 343.171 60.0559 346.368 58.7922 347.418C57.466 348.516 1.70763 348.668 0.613806 347.57C0.1918 347.153 0.410484 344.637 1.14517 341.472C1.83191 338.507 2.43243 334.749 2.47979 333.122C2.52715 331.487 2.75377 329.82 2.98351 329.42C3.21317 329.011 3.48995 327.753 3.59845 326.615C4.32526 318.986 4.82722 315.044 5.13509 314.539C5.33037 314.227 5.69626 311.694 5.94828 308.914C6.20022 306.133 6.5464 303.633 6.71748 303.352C6.88865 303.08 7.24051 300.7 7.49942 298.072C7.75841 295.443 8.28497 291.957 8.66881 290.323C9.05265 288.696 9.18487 287.174 8.9613 286.949C8.73772 286.725 8.82266 285.899 9.15041 285.106C9.74901 283.664 9.90767 282.694 10.6337 276.059C11.0319 272.421 12.1137 265.377 13.6667 256.314C14.1299 253.614 14.6179 250.368 14.7501 249.102C14.8831 247.844 15.4345 243.749 15.9746 239.999C16.5155 236.249 17.0484 232.29 17.1589 231.184C17.5668 227.138 19.3041 215.59 19.5709 215.158C19.8242 214.749 21.4437 203.835 21.9493 199.131C22.6753 192.376 23.3997 190.316 25.0825 190.212C26.0177 190.156 30.5693 189.836 35.197 189.499L43.611 188.89L32.9933 189.138C24.7155 189.331 22.3756 189.154 22.3756 188.345C22.3756 187.776 22.8564 186.911 23.4438 186.422C24.4927 185.548 33.0919 184.731 43.0356 184.555C45.805 184.507 48.2803 184.13 48.5375 183.713C48.794 183.297 49.0047 181.213 49.0047 179.074C49.0047 176.509 49.3797 175.051 50.1138 174.762C50.7244 174.53 51.2236 173.865 51.2236 173.288C51.2236 172.711 51.9857 171.589 52.9168 170.796C54.1108 169.77 54.3592 169.089 53.759 168.488C53.2277 167.959 53.0915 165.683 53.396 162.422C53.751 158.624 53.6356 157.366 52.9697 157.774C51.323 158.792 31.236 158.495 29.9578 157.438C28.6765 156.372 28.3488 153.455 29.5099 153.455C29.9082 153.455 30.401 151.74 30.6037 149.649C30.9683 145.898 33.2585 129.423 35.5896 113.789C36.2467 109.382 37.1698 103.067 37.641 99.7657C38.1122 96.4642 39.1692 89.7891 39.9905 84.941C40.8119 80.093 42.07 71.6189 42.7872 66.1097C43.5036 60.6005 44.6335 53.1273 45.2978 49.5029C45.9613 45.8776 46.66 41.0672 46.8491 38.8123C47.0391 36.5581 47.5351 33.3937 47.9518 31.7806C48.3685 30.1675 48.9526 26.4485 49.2499 23.5164L49.7908 18.1852L63.9296 17.8638C71.7057 17.6867 78.3648 17.6891 78.7278 17.8694C79.0908 18.0489 84.156 18.1427 89.9817 18.0762C101.024 17.9512 103.308 18.2909 103.308 20.0547C103.308 21.4883 94.365 22.3914 86.8886 21.7134C83.0101 21.3625 80.3577 21.5051 78.9626 22.1397C76.3799 23.3169 72.8724 22.0059 72.8356 19.8495C72.8123 18.5025 72.7691 18.5017 71.9942 19.8327C71.297 21.0291 69.9267 21.235 62.6699 21.235C57.9901 21.235 54.4177 21.4915 54.7311 21.804C55.0444 22.1173 58.9805 22.3882 63.4792 22.405L71.6576 22.437L71.5631 25.6424C71.4613 29.1338 71.3796 29.7716 68.8698 46.8777C67.9314 53.2683 66.9842 59.9394 66.7639 61.7024C66.2462 65.8373 66.1332 66.6434 64.069 80.9344C63.1146 87.5454 62.2147 93.8519 62.0697 94.9577C61.9254 96.0635 61.0383 102.37 60.1 108.981C58.4781 120.408 56.4066 135.345 55.6005 141.435C55.3962 142.974 55.1021 145.137 54.9466 146.243C54.1148 152.133 53.7037 156.941 54.1052 156.059C54.7134 154.729 60.8316 154.729 60.8637 156.059C60.8997 157.534 62.5601 154.417 62.8221 152.381C62.9447 151.428 63.4824 147.589 64.0161 143.839C64.5498 140.089 65.1348 135.762 65.3175 134.223C65.4994 132.684 65.7903 130.521 65.9633 129.415C66.4514 126.306 71.3467 88.539 71.7273 84.941C71.914 83.1781 72.2811 80.4696 72.5423 78.931C73.1064 75.5991 72.854 77.3741 76.5321 50.8844C78.154 39.2049 79.6517 28.0905 79.8617 26.1857C80.2295 22.8666 81.9924 20.9073 83.1543 22.5204C83.4428 22.9154 88.0024 23.2384 93.2912 23.2384H102.907L102.723 25.2417C102.619 26.3435 102.507 28.6874 102.483 30.4504C102.458 32.2133 102.098 34.9531 101.673 36.5381C100.904 39.4373 100.191 44.5434 99.7339 50.4837C99.5897 52.2466 98.9166 57.6556 98.2194 62.5037C97.5303 67.3518 96.769 73.3017 96.5366 75.7257C96.3122 78.1497 95.9036 81.7517 95.6391 83.739C95.3747 85.7264 95.1503 88.7874 95.1423 90.5504C95.1343 92.3133 94.8218 93.948 94.4531 94.1724C94.0845 94.4048 93.7239 96.3921 93.6438 98.5797C93.5717 100.775 93.2111 103.836 92.8585 105.375C92.4979 106.914 92.0091 110.52 91.7687 113.388C91.5283 116.257 91.1036 120.216 90.8311 122.203C90.5587 124.19 90.2542 126.53 90.158 127.412C90.0618 128.293 89.7333 130.633 89.4368 132.62C88.8839 136.266 87.9944 144.825 87.9383 147.044C87.9143 148.126 87.6659 149.456 86.1113 156.861L85.6465 159.064H74.895C68.5893 159.064 63.9344 158.736 63.6443 158.263C62.7388 156.797 61.919 157.43 61.0488 160.266C60.2386 162.911 60.2955 163.071 62.0312 163.071C63.0441 163.071 64.081 162.526 64.335 161.869C64.9376 160.298 66.8071 160.338 68.4282 161.957C69.466 162.999 71.172 163.207 77.0995 163.031C81.159 162.911 86.0151 162.791 87.8822 162.759C89.7894 162.734 91.2879 162.326 91.2879 161.837C91.2879 161.236 93.5236 161.068 98.2915 161.324C104.63 161.653 105.191 161.565 104.229 160.411C103.212 159.185 103.644 157.077 104.766 157.774C105.071 157.959 105.335 157.333 105.359 156.38C105.488 151.876 106.633 139.328 107.675 131.018C108.308 125.953 109.005 119.999 109.222 117.796C109.43 115.592 109.967 111.265 110.416 108.18C110.864 105.095 111.794 97.1614 112.483 90.5504C115.4 62.6359 119.038 31.4344 119.815 27.7619C120.104 26.37 120.617 25.9805 121.755 26.2786C122.604 26.5006 125.2 26.2025 127.524 25.6159L131.755 24.5486L125.946 24.9989C120.48 25.422 120.136 25.3523 120.136 23.8065C120.136 21.9715 120.224 21.9458 132.42 20.0395C136.748 19.3631 140.61 19.0097 141.011 19.2541C141.403 19.4986 142.621 19.1123 143.719 18.3943C144.817 17.6771 145.995 17.2676 146.348 17.4848C146.7 17.7012 151.853 17.238 157.807 16.4551C168.953 14.987 170.62 15.0399 170.62 16.8646C170.62 17.5305 169.194 18.1275 166.814 18.452C164.722 18.7381 161.749 19.299 160.203 19.6989C158.664 20.098 155.803 20.4265 153.848 20.4289C151.444 20.4321 149.753 20.9353 148.639 21.9819C147.173 23.3506 146.588 23.4243 143.583 22.6197C141.003 21.9274 139.544 21.9402 137.517 22.6742C136.05 23.2047 134.151 23.6503 133.302 23.6631C131.956 23.6847 131.923 23.7849 133.045 24.4412C133.855 24.914 135.345 24.9052 137.052 24.4171C138.543 23.9892 140.081 23.639 140.474 23.639C141.315 23.639 141.059 26.5463 136.924 64.1064C135.177 79.9728 132.18 107.867 130.273 126.09C127.684 150.698 126.506 159.401 125.673 159.93C125.048 160.322 122.74 160.675 120.537 160.707C111.554 160.867 112.002 163.432 121.138 164.193L127.348 164.706V161.549C127.348 156.684 127.933 155.859 131.347 155.859C134.023 155.859 136.756 154.312 135.794 153.351C135.594 153.151 135.762 150.666 136.163 147.814C136.555 144.969 137.268 138.31 137.733 133.021C138.198 127.732 138.919 120.16 139.336 116.193C139.753 112.226 140.297 106.641 140.554 103.772C141.027 98.4115 142.413 84.8689 144.585 64.507C145.266 58.1164 146.163 49.6423 146.572 45.6757C148.279 29.4303 149.136 22.4443 149.497 21.8561C150.226 20.6757 152.189 21.2399 152.213 22.6374C152.237 23.9732 152.277 23.9732 153.055 22.6374C154.104 20.8336 155.387 20.8336 155.419 22.6374C155.451 23.9732 155.499 23.9732 156.516 22.6374C157.726 21.0331 159.401 20.7743 159.401 22.1894C159.401 22.7143 159.906 22.4579 160.515 21.6189C161.429 20.376 161.853 20.2775 162.831 21.0852C163.801 21.8889 164.121 21.8352 164.514 20.7999C164.834 19.9681 165.539 19.6925 166.541 20.0106C167.391 20.2791 168.312 20.1236 168.601 19.6652C169.955 17.472 170.62 19.2517 170.315 24.24C169.891 31.1892 168.392 47.7512 167.399 56.4937C166.974 60.2399 166.261 67.6322 165.812 72.921C165.363 78.2098 164.842 84.1557 164.65 86.143C164.458 88.1304 164.089 92.2732 163.841 95.3584C163.584 98.4435 163.039 103.853 162.631 107.378C162.222 110.904 161.645 116.498 161.364 119.799C161.076 123.101 160.723 127.075 160.579 128.614C160.435 130.152 159.89 136.819 159.361 143.422C158.632 152.525 158.103 155.643 157.166 156.332C156.476 156.837 151.596 157.638 146.315 158.127C138.086 158.88 136.579 158.84 135.834 157.83C135.161 156.925 134.945 157.47 134.864 160.266C134.808 162.246 135.081 163.872 135.465 163.872C135.85 163.872 136.163 163.512 136.163 163.071C136.163 162.63 136.707 162.27 137.365 162.27C138.03 162.27 138.567 162.63 138.567 163.071C138.567 163.56 142.445 163.872 148.583 163.872C154.449 163.872 158.6 163.552 158.6 163.103C158.6 162.678 159.594 162.342 160.804 162.35C164.762 162.374 167.006 161.885 167.655 160.867C168.008 160.314 168.753 159.866 169.306 159.866C169.859 159.866 170.668 158.872 171.093 157.662C171.75 155.803 171.622 155.322 170.243 154.609C169.065 153.992 168.673 153.086 168.809 151.283C168.937 149.697 168.576 148.647 167.807 148.351C167.15 148.102 166.613 146.98 166.613 145.866C166.613 144.071 166.958 143.831 169.618 143.775C171.277 143.743 173.256 143.599 174.026 143.446C174.803 143.302 175.428 143.51 175.428 143.911C175.428 144.312 176.325 144.64 177.415 144.64C178.874 144.64 179.539 145.177 179.907 146.644C180.404 148.607 180.556 148.647 188.217 148.647C195.517 148.647 196.078 148.767 196.896 150.45L197.777 152.253L198.314 150.45C198.843 148.703 199.171 148.647 209.084 148.647C218.644 148.647 219.341 148.751 219.734 150.25C220.279 152.325 221.905 152.325 221.905 150.25C221.905 148.727 222.442 148.647 232.323 148.647C242.211 148.647 242.74 148.727 242.74 150.25C242.74 151.131 243.1 151.852 243.541 151.852C243.982 151.852 244.343 152.389 244.343 153.046C244.343 153.703 244.968 155.691 245.737 157.454L247.123 160.667L252.348 160.747C255.217 160.787 261.138 160.956 265.506 161.124C272.309 161.388 273.599 161.228 274.497 160.042C275.899 158.199 275.859 156.276 274.393 155.058C272.742 153.687 272.846 147.477 274.569 144.56C275.434 143.102 276.604 142.236 277.726 142.236C279.834 142.236 282.005 145.017 282.005 147.709C282.005 149.12 282.334 149.496 283.271 149.136C283.968 148.863 284.874 148.647 285.275 148.647C285.683 148.647 286.012 146.844 286.012 144.64C286.012 141.78 285.699 140.634 284.914 140.634C283.44 140.634 282.622 135.297 283.816 133.398C284.321 132.58 285.547 131.707 286.541 131.458C288.304 131.018 294.025 133.173 294.025 134.279C294.025 135.273 291.757 139.255 290.884 139.792C290.419 140.081 289.995 143.254 289.946 146.884C289.89 150.498 289.514 153.455 289.105 153.455C288.696 153.455 288.063 154.264 287.687 155.258C287.174 156.604 287.382 157.43 288.528 158.511C290.435 160.322 289.778 161.524 286.965 161.364C285.779 161.3 284.449 161.332 284.009 161.452C280.395 162.39 278.976 159.569 282.406 158.263C283.512 157.846 284.409 156.949 284.409 156.276C284.409 154.449 283.456 154.881 281.044 157.782L278.88 160.395L280.643 162.951C281.613 164.353 283.311 165.723 284.409 165.996C285.515 166.276 286.861 166.845 287.406 167.278C288.849 168.416 292.407 167.286 292.511 165.659C292.559 164.898 292.535 163.464 292.455 162.478C292.358 161.236 292.967 160.387 294.442 159.713C296.157 158.936 296.357 158.584 295.46 157.902C294.129 156.893 291.621 153.351 291.621 152.477C291.621 152.133 292.166 151.852 292.823 151.852C293.488 151.852 294.025 151.492 294.025 151.051C294.025 150.089 297.215 150.009 298.665 150.931C299.226 151.283 299.458 152.181 299.178 152.918C298.777 153.96 299.13 154.256 300.756 154.256C302.287 154.256 302.84 154.673 302.84 155.811C302.84 156.668 302.479 157.59 302.039 157.862C301.598 158.135 301.237 159.104 301.237 160.01C301.237 161.589 301.582 161.653 308.121 161.308C314.636 160.964 315.733 160.555 316.655 158.095C316.767 157.782 318.41 157.333 320.309 157.093C324.091 156.62 328.483 154.657 328.483 153.431C328.483 153.006 329.428 152.654 330.574 152.654C332.481 152.654 332.633 152.878 332.265 155.258C332.04 156.692 331.688 158.584 331.488 159.465C331.287 160.347 331.271 160.619 331.464 160.066C332.016 158.463 334.597 158.904 335.863 160.811C336.768 162.174 337.169 162.326 337.69 161.492C338.131 160.771 338.042 160.611 337.425 160.988C336.913 161.308 336.496 161.18 336.496 160.715C336.496 160.25 337.041 159.866 337.698 159.866C338.363 159.866 338.9 160.387 338.9 161.028C338.9 161.981 339.349 162.029 341.424 161.308C343.283 160.659 344.333 160.667 345.423 161.348C347.234 162.478 351.721 162.566 351.721 161.468C351.721 161.028 352.266 160.667 352.923 160.667C353.588 160.667 354.125 161.028 354.125 161.468C354.125 161.933 356.802 162.27 360.536 162.27C366.201 162.27 366.947 162.101 366.947 160.811C366.947 158.912 379.624 146.243 381.515 146.243C382.34 146.243 383.013 145.626 383.069 144.841C383.117 144.071 386.331 140.465 390.209 136.827C397.325 130.152 400.603 128.574 400.603 131.819C400.603 132.701 400.338 133.422 400.002 133.422C399.673 133.422 399.32 134.568 399.224 135.97C399.128 137.364 398.671 138.879 398.223 139.328C397.766 139.784 397.397 141.139 397.397 142.349C397.397 143.559 397.077 144.745 396.692 144.985C396.115 145.338 394.969 149.288 394.657 151.989C394.625 152.277 394.328 152.79 393.992 153.118C393.11 154.008 393.262 156.66 394.192 156.66C394.633 156.66 395.041 156.3 395.097 155.859C395.153 155.418 395.29 154.697 395.394 154.256C395.506 153.816 395.642 153.094 395.698 152.654C395.754 152.213 396.428 151.884 397.197 151.916C398.038 151.957 398.199 152.141 397.598 152.381C397.053 152.606 396.604 153.391 396.612 154.12C396.62 155.274 396.724 155.298 397.397 154.256C398.086 153.191 398.175 153.191 398.175 154.256C398.175 154.913 397.83 156.003 397.397 156.66C396.756 157.654 396.62 157.662 396.612 156.724C396.604 156.099 396.404 155.787 396.163 156.027C395.29 156.901 399.176 162.27 400.683 162.27C401.7 162.27 402.237 162.871 402.301 164.073C402.374 165.427 402.486 165.531 402.758 164.473C403.215 162.751 405.411 162.606 405.411 164.305C405.411 165.267 405.747 165.355 406.965 164.706C409.089 163.56 412.406 163.656 412.895 164.874C413.119 165.427 413.328 165.066 413.36 164.073C413.424 162.302 415.435 161.516 415.964 163.047C416.301 164.049 422.639 164.329 426.045 163.504C428.233 162.975 428.649 163.095 428.649 164.273C428.649 165.299 428.922 165.451 429.651 164.842C430.877 163.832 454.292 163.768 454.292 164.778C454.292 166.172 456.608 165.427 457.097 163.872C457.593 162.31 459.901 161.573 459.901 162.975C459.901 163.368 460.839 163.864 461.977 164.081L464.044 164.473L463.515 159.89C463.083 156.196 463.235 155.042 464.301 153.976C465.863 152.421 469.229 152.221 469.742 153.655C469.942 154.208 470.375 154.409 470.703 154.104C471.44 153.407 471.296 140.634 470.375 125.809C469.99 119.639 469.677 114.045 469.669 113.388C469.669 112.731 469.453 108.035 469.197 102.971C468.171 82.8736 467.939 78.1369 467.514 68.113C467.265 62.3835 466.913 56.2533 466.721 54.4904C466.528 52.7274 466.136 44.4336 465.847 36.0597C465.559 27.6858 465.158 20.5603 464.966 20.2262C463.98 18.545 465.687 16.5865 468.147 16.5737C470.783 16.5601 477.13 15.8437 477.13 15.56C477.13 15.4727 478.412 15.3252 479.983 15.2315C481.545 15.1377 484.126 14.818 485.712 14.5207L488.597 13.9798L489.062 17.8077C489.31 19.9128 489.719 24.8811 489.959 28.8477L490.761 42.0697C491.105 47.5428 492.115 64.8132 493.189 83.3384C493.421 87.305 493.766 92.8903 493.95 95.759C494.134 98.6278 494.503 104.574 494.767 108.981C495.024 113.388 495.392 119.334 495.577 122.203C495.753 125.072 496.121 131.915 496.378 137.428C496.642 142.942 497.043 148.431 497.275 149.641C497.516 150.931 497.251 152.277 496.626 152.894C495.448 154.048 473.187 157.037 471.857 156.22C471.32 155.891 471.12 157.197 471.28 159.938C471.505 163.784 471.721 164.217 473.724 164.754C475.76 165.291 475.928 165.155 475.928 162.999C475.928 160.138 477.154 160.026 479.606 162.67C481.794 165.034 484.919 165.267 488.749 163.352C491.177 162.141 491.482 162.141 492.339 163.311C493.141 164.409 496.017 164.61 513.062 164.778C523.944 164.882 532.39 165.259 531.837 165.611C531.148 166.044 531.404 166.252 532.622 166.26C533.696 166.268 534.425 165.788 534.425 165.074C534.425 163.464 535.411 163.56 538.648 165.475L541.365 167.07L540.595 162.326C539.898 157.951 539.698 157.63 538.135 158.191C537.198 158.535 533.183 158.872 529.217 158.952C525.25 159.024 520.546 159.297 518.759 159.545C516.539 159.858 515.217 159.657 514.616 158.928C514.087 158.295 513.198 149.024 512.445 136.218C511.747 124.327 510.658 106.657 510.017 96.961C509.384 87.2649 508.446 72.4803 507.933 64.1064C507.428 55.7324 506.571 42.5705 506.026 34.8577C505.489 27.1449 505.321 20.5179 505.657 20.1308C505.994 19.7438 505.85 18.7605 505.345 17.9472C504.744 16.9872 504.696 16.2003 505.201 15.7074C505.93 14.9943 515.57 13.8924 531.22 12.7329C534.97 12.4556 541.277 11.9444 545.243 11.5982C557.528 10.5252 561.655 10.647 562.215 12.1006C562.488 12.8058 562.207 13.7025 561.59 14.092C560.941 14.503 560.853 14.8051 561.382 14.8124C561.879 14.8188 562.512 16.3565 562.784 18.23C563.289 21.695 567.007 62.4428 569.275 89.3484C569.964 97.506 570.702 105.976 570.91 108.18C571.583 115.416 572.833 129.704 573.314 135.826C573.578 139.127 574.107 144.544 574.5 147.846C575.349 155.082 574.732 156.051 569.115 156.348C550.588 157.317 549.018 157.542 548.537 159.337C547.816 162.029 547.968 164.674 548.849 164.674C549.29 164.674 549.651 165.756 549.651 167.078C549.651 168.4 549.29 169.482 548.849 169.482C548.408 169.482 548.048 170.035 548.048 170.7C548.048 171.373 547.19 172.254 546.133 172.655C545.075 173.056 544.049 173.857 543.857 174.442C543.4 175.788 545.772 180.652 546.902 180.684C547.375 180.692 548.096 182.592 548.505 184.907C549.25 189.082 549.282 189.122 553.016 190.044C555.092 190.557 560.501 191.174 565.036 191.406C574.796 191.927 573.322 191.663 574.836 193.177C577.385 195.725 576.303 196.086 567.48 195.669L558.866 195.253L566.623 196.19C570.886 196.703 574.572 197.328 574.804 197.568C575.045 197.809 575.437 200.333 575.678 203.178C575.926 206.023 576.295 209.789 576.503 211.552C576.712 213.315 577.072 217.466 577.313 220.767C577.545 224.069 577.906 228.043 578.106 229.582C578.306 231.12 578.667 235.271 578.915 238.797C579.156 242.323 579.524 246.474 579.733 248.012C579.933 249.551 580.47 255.505 580.911 261.234C581.351 266.964 581.864 273.27 582.048 275.258C582.225 277.245 582.601 281.925 582.874 285.675C583.154 289.425 583.723 296.453 584.14 301.301C584.565 306.149 585.086 312.279 585.31 314.924C586.872 333.883 587.353 339.829 587.81 346.24C588.315 353.267 588.411 353.548 590.567 354.357C592.137 354.958 593.051 354.95 593.66 354.333C594.285 353.716 594.525 353.949 594.525 355.167C594.525 356.705 594.157 356.841 590.719 356.577C588.627 356.417 581.415 356.264 574.692 356.24C562.568 356.2 562.472 356.184 562.472 354.389C562.464 352.346 560.541 326.231 559.331 311.718C558.89 306.43 558.329 299.041 558.089 295.291C557.319 283.407 556.021 266.139 555.685 263.438C555.364 260.834 555.957 260.369 559.066 260.778C559.619 260.842 560.068 260.497 560.068 260C560.068 259.423 559.226 259.287 557.664 259.632C555.268 260.161 555.26 260.161 555.156 256.29C555.092 254.159 554.931 251.138 554.795 249.567C554.659 247.996 553.809 236.633 552.904 224.325C552.006 212.008 551.061 200.405 550.812 198.53L550.356 195.124L554.21 194.996C557.359 194.892 557.552 194.812 555.26 194.563C553.721 194.395 551.918 194.059 551.253 193.81C550.596 193.554 544.642 193.257 538.031 193.129L526.011 192.913L533.624 193.818L541.237 194.724L541.781 199.532C542.086 202.176 542.543 207.401 542.807 211.151C549.218 302.543 549.57 307.776 551.79 342.57C552.087 347.201 552.359 351.881 552.391 352.987C552.455 354.95 552.319 354.998 545.932 355.223C539.89 355.439 539.434 355.575 539.81 357.026C540.171 358.38 539.81 358.596 537.19 358.596C533.8 358.596 533.76 357.899 537.142 357.619C539.025 357.466 539.145 357.306 538.039 356.497C537.046 355.768 536.989 355.455 537.791 355.135C538.368 354.902 536.493 354.694 533.624 354.662C530.17 354.63 528.808 354.862 529.585 355.351C530.218 355.752 531.092 355.872 531.524 355.607C531.973 355.327 532.077 355.704 531.765 356.505C531.452 357.322 531.564 357.683 532.029 357.386C532.47 357.122 532.823 357.282 532.823 357.747C532.823 358.781 529.802 358.693 527.614 357.595V357.595ZM107.715 347.378C108.396 346.288 111.594 346.368 112.732 347.506C114.334 349.101 115.993 346.809 116.49 342.313C116.738 340.029 117.123 335.822 117.339 332.954C117.556 330.085 117.908 326.303 118.125 324.54C118.557 320.894 119.11 315.068 119.775 306.91C120.024 303.825 120.384 299.859 120.561 298.096C120.737 296.333 121.114 292.55 121.386 289.682C121.658 286.813 121.987 283.576 122.107 282.47C122.235 281.364 122.572 277.582 122.868 274.056C123.165 270.53 123.59 266.707 123.814 265.562C124.038 264.416 124.367 260.994 124.551 257.949C124.736 254.912 125.064 250.977 125.288 249.214C125.513 247.451 125.889 244.022 126.138 241.602C126.386 239.182 126.731 236.113 126.907 234.79C127.083 233.468 127.452 229.862 127.733 226.777C128.005 223.692 128.558 218.283 128.959 214.757C129.351 211.231 129.888 205.638 130.137 202.336C130.826 193.345 131.395 190.324 132.428 190.212C132.941 190.148 136.243 190.124 139.769 190.156L146.179 190.212L141.772 189.491C137.998 188.874 132.484 188.61 126.146 188.746C125.264 188.762 119.142 188.778 112.539 188.778C105.944 188.778 99.7179 188.978 98.7162 189.235C97.2738 189.595 96.8972 189.355 96.8972 188.049C96.8972 187.143 97.3379 186.133 97.8748 185.805C98.4037 185.476 103.18 185.26 108.484 185.324C114.118 185.396 117.66 185.156 117.011 184.755C116.378 184.362 116.121 183.497 116.41 182.736C116.995 181.213 118.533 181.806 118.533 183.553C118.533 185.212 123.029 185.076 123.678 183.393C123.958 182.664 124.086 182.039 123.966 181.991C122.091 181.253 120.344 179.763 119.551 178.216C118.605 176.389 118.557 176.373 118.549 178C118.541 178.937 118.052 180.099 117.467 180.596C116.49 181.406 107.563 181.75 93.147 181.542L88.2027 181.47L89.5009 184.891C90.2221 186.774 91.4562 189.17 92.2495 190.22C93.0428 191.278 93.6919 192.76 93.6919 193.53C93.6919 195.116 95.575 196.983 96.3683 196.182C96.6648 195.894 96.8972 194.491 96.8972 193.065V190.469L105.111 189.924C109.63 189.627 115.312 189.507 117.732 189.651C121.875 189.9 122.131 190.036 122.003 191.919C121.859 193.922 121.057 200.95 120.545 204.74C120.4 205.846 120.04 209.084 119.751 211.952C119.455 214.821 119.094 218.059 118.95 219.164C118.798 220.27 118.477 223.155 118.229 225.575C117.98 227.995 117.58 231.785 117.339 233.989C117.099 236.193 116.73 239.799 116.506 242.002C116.289 244.206 115.055 255.93 113.757 268.046C112.459 280.162 111.161 293.512 110.88 297.695C110.6 301.878 110.231 305.532 110.063 305.797C109.703 306.381 108.396 318.073 107.739 326.543C107.483 329.845 107.106 334.172 106.898 336.159C105.808 346.665 105.752 348.179 106.465 348.179C106.882 348.179 107.443 347.818 107.715 347.378V347.378ZM35.2755 343.155C35.5992 341.937 36.2587 337.617 36.7411 333.547C37.2227 329.476 37.9704 323.618 38.4015 320.533C39.569 312.183 43.0156 285.98 43.6711 280.466C43.9852 277.822 44.3314 274.937 44.4395 274.056C44.5477 273.174 45.5566 266.323 46.6817 258.83C47.8059 251.338 48.9262 242.684 49.1698 239.598C49.4134 236.513 49.9824 231.649 50.4327 228.78C50.8839 225.912 51.7717 219.421 52.4056 214.356C53.0402 209.292 53.7727 203.522 54.0339 201.535C54.2951 199.548 54.7607 195.942 55.0692 193.522L55.6309 189.114L64.6459 188.89C69.6038 188.762 73.6609 188.401 73.6609 188.081C73.6609 187.648 48.9406 187.44 46.4156 187.848C46.1953 187.88 46.0093 190.348 46.0013 193.321C45.9941 196.294 45.5077 201.791 44.9203 205.542C44.333 209.292 43.7472 213.251 43.619 214.356C43.0252 219.453 41.5651 229.261 41.2366 230.359C40.8808 231.561 39.3671 242.379 37.1995 259.231C36.0872 267.877 34.8732 276.828 33.6672 285.274C33.2898 287.919 33.1207 290.323 33.2914 290.611C33.4621 290.908 33.0902 293.608 32.466 296.621C31.2031 302.711 27.6989 327.473 26.0762 341.768L25.6667 345.374L30.1758 345.366C34.4157 345.358 34.721 345.222 35.2755 343.155V343.155ZM437.785 158.952C437.409 158.351 437.056 154.256 437 149.849C436.848 138.566 435.91 107.17 435.469 98.5637C435.269 94.5971 434.924 85.7584 434.7 78.931C434.484 72.0997 434.067 59.4787 433.771 50.8844C433.482 42.2901 433.202 32.013 433.154 28.0464L433.057 20.8344L435.461 20.7286C439.981 20.5307 448.283 19.5282 451.744 18.7637C453.644 18.343 455.495 18.1788 455.847 18.3983C456.2 18.6179 456.729 23.9436 457.025 30.2332C457.322 36.5229 457.73 44.7341 457.939 48.4804C458.139 52.2266 458.668 64.1264 459.109 74.9244C459.541 85.7263 460.086 98.7079 460.319 103.772C462.691 156.436 462.691 156.404 461.008 157.269C460.183 157.694 456.08 158.295 451.889 158.592C447.706 158.888 442.97 159.337 441.375 159.585C439.388 159.898 438.25 159.697 437.785 158.952V158.952ZM432.809 18.23C433.025 17.0946 435.061 16.492 443.483 15.0624C449.212 14.0912 454.741 13.4757 455.775 13.6945C456.809 13.9133 458.099 13.7258 458.636 13.277C459.173 12.8291 460.671 12.4677 461.961 12.4741C463.252 12.4805 469.358 11.7985 475.528 10.9579C487.083 9.38573 488.75 9.42339 488.75 11.2568C488.75 12.886 488.333 12.9845 476.73 14.0783C468.444 14.8604 465.423 15.4614 463.805 16.6482C462.154 17.8558 461.096 18.057 458.997 17.5601C457.514 17.2099 456.12 16.9567 455.895 16.9976C455.679 17.0393 453.019 17.3053 449.998 17.589C446.968 17.8735 442.681 18.4496 440.47 18.8695C434.331 20.033 432.496 19.8792 432.809 18.23V18.23Z" stroke="black" stroke-width="0.801333"/>
</g>
<rect x="152.165" y="25.4666" width="16.0568" height="129.137" transform="rotate(4.95957 152.165 25.4666)" fill="#0E0D42"/>
<rect x="466.289" y="21.6516" width="16.0568" height="131.912" transform="rotate(-2.47306 466.289 21.6516)" fill="#0E0D42"/>
<rect x="470.722" y="200.488" width="18.9538" height="147.944" transform="rotate(-2.60869 470.722 200.488)" fill="#0E0D42"/>
<rect x="550.576" y="200.926" width="18.9538" height="147.944" transform="rotate(-4.40452 550.576 200.926)" fill="#0E0D42"/>
<rect x="539.329" y="21.9595" width="16.0568" height="131.912" transform="rotate(-3.97738 539.329 21.9595)" fill="#0E0D42"/>
<rect x="138.497" y="200.447" width="16.0568" height="143.817" transform="rotate(4.95957 138.497 200.447)" fill="#0E0D42"/>
<rect x="125.353" y="25.4666" width="16.0568" height="129.137" transform="rotate(4.95957 125.353 25.4666)" fill="#0E0D42"/>
<rect x="195.199" y="149.514" width="20.7329" height="20.2214" rx="2.46451" transform="rotate(89.077 195.199 149.514)" fill="#1E1A1A"/>
<rect x="219.023" y="149.514" width="20.5738" height="20.2214" rx="2.46451" transform="rotate(89.077 219.023 149.514)" fill="#1E1A1A"/>
<rect x="242.846" y="149.514" width="20.1697" height="20.2214" rx="2.46451" transform="rotate(89.077 242.846 149.514)" fill="#1E1A1A"/>
<rect x="279.726" y="195.264" width="16.0568" height="39.5015" rx="2.46451" transform="rotate(91.6178 279.726 195.264)" fill="#1E1A1A"/>
<rect x="335.954" y="199.463" width="16.0568" height="23.3379" rx="2.46451" transform="rotate(91.6178 335.954 199.463)" fill="#1E1A1A"/>
<rect x="279.728" y="167.745" width="8.34275" height="34.6982" rx="2.46451" transform="rotate(91.6178 279.728 167.745)" fill="#1E1A1A"/>
<rect x="232.572" y="156.107" width="3.86129" height="47.6756" rx="1.93065" transform="rotate(90.4107 232.572 156.107)" fill="#1E1A1A"/>
<rect x="233.362" y="163" width="3.86129" height="47.6756" rx="1.93065" transform="rotate(90.4107 233.362 163)" fill="#1E1A1A"/>
<rect x="248.669" y="210.229" width="3.86129" height="43.4218" rx="1.93065" transform="rotate(-179.323 248.669 210.229)" fill="#1E1A1A"/>
<rect x="257.706" y="210.229" width="3.86129" height="42.4634" rx="1.93065" transform="rotate(-179.323 257.706 210.229)" fill="#1E1A1A"/>
<rect x="268.385" y="210.229" width="3.86129" height="42.4558" rx="1.93065" transform="rotate(-179.323 268.385 210.229)" fill="#1E1A1A"/>
<rect x="276.6" y="211.051" width="3.86129" height="43.4218" rx="1.93065" transform="rotate(-179.323 276.6 211.051)" fill="#1E1A1A"/>
<rect x="316.033" y="211.051" width="3.86129" height="43.4218" rx="1.93065" transform="rotate(-179.323 316.033 211.051)" fill="#1E1A1A"/>
<rect x="325.891" y="211.051" width="3.86129" height="43.4218" rx="1.93065" transform="rotate(-179.323 325.891 211.051)" fill="#1E1A1A"/>
<rect x="442.791" y="174.72" width="6.31576" height="43.4218" rx="2.46451" transform="rotate(-87.9798 442.791 174.72)" fill="#1E1A1A"/>
<rect x="116.905" y="164.713" width="13.173" height="58.7357" rx="2.46451" transform="rotate(88.6728 116.905 164.713)" fill="#1E1A1A"/>
<rect x="535.286" y="169.195" width="12.3782" height="55.1916" rx="2.46451" transform="rotate(92.0085 535.286 169.195)" fill="#1E1A1A"/>
<rect x="454.538" y="166.574" width="11.6453" height="27.2663" rx="2.46451" transform="rotate(90.8664 454.538 166.574)" fill="#1E1A1A"/>
<rect x="156.224" y="165.789" width="9.82518" height="42.0423" rx="2.46451" transform="rotate(88.8949 156.224 165.789)" fill="#1E1A1A"/>
<rect x="155.598" y="174.111" width="9.82518" height="29.9132" rx="2.46451" transform="rotate(88.8949 155.598 174.111)" fill="#1E1A1A"/>
<rect x="358.127" y="166.738" width="11.0734" height="54.1446" rx="2.46451" transform="rotate(91.6178 358.127 166.738)" fill="#1E1A1A"/>
<rect x="433.754" y="25.0813" width="18.6351" height="129.301" transform="rotate(-1.55709 433.754 25.0813)" fill="#0E0D42"/>
<rect x="437.04" y="200.953" width="18.6351" height="149.762" transform="rotate(-1.55709 437.04 200.953)" fill="#0E0D42"/>
<rect x="516.788" y="201.358" width="18.6351" height="149.762" transform="rotate(-3.40693 516.788 201.358)" fill="#0E0D42"/>
<rect x="505.654" y="25.6384" width="18.6351" height="129.301" transform="rotate(-4.11028 505.654 25.6384)" fill="#0E0D42"/>
<rect x="104.352" y="200.447" width="16.0568" height="143.135" transform="rotate(5.27725 104.352 200.447)" fill="#0E0D42"/>
<rect x="86.8146" y="25.4666" width="16.0568" height="129.137" transform="rotate(7.1911 86.8146 25.4666)" fill="#0E0D42"/>
<rect x="60.5265" y="197.161" width="17.645" height="145.594" transform="rotate(7.1911 60.5265 197.161)" fill="#0E0D42"/>
<rect x="54.776" y="25.4666" width="16.0568" height="129.137" transform="rotate(7.1911 54.776 25.4666)" fill="#0E0D42"/>
<rect x="28.6697" y="194.138" width="16.0568" height="148.618" transform="rotate(7.1911 28.6697 194.138)" fill="#0E0D42"/>
</g>
<defs>
<filter id="filter0_d" x="-1.52588e-05" y="9.42651" width="602.926" height="357.571" filterUnits="userSpaceOnUse" color-interpolation-filters="sRGB">
<feFlood flood-opacity="0" result="BackgroundImageFix"/>
<feColorMatrix in="SourceAlpha" type="matrix" values="0 0 0 0 0 0 0 0 0 0 0 0 0 0 0 0 0 0 127 0"/>
<feOffset dx="4" dy="4"/>
<feGaussianBlur stdDeviation="2"/>
<feColorMatrix type="matrix" values="0 0 0 0 0.279167 0 0 0 0 0.259392 0 0 0 0 0.259392 0 0 0 1 0"/>
<feBlend mode="normal" in2="BackgroundImageFix" result="effect1_dropShadow"/>
<feBlend mode="normal" in="SourceGraphic" in2="effect1_dropShadow" result="shape"/>
</filter>
<clipPath id="clip0">
<rect width="601" height="358.997" fill="white"/>
</clipPath>
</defs>
</svg>
