<svg width="60" height="15" viewBox="0 0 60 15" fill="none" xmlns="http://www.w3.org/2000/svg">
<g id="NASA_Worm_logo_(black) 1">
<g id="main layer">
<g id="Group">
<path id="Vector" d="M10.8607 11.0807C11.0468 11.7115 11.347 11.9555 11.8776 11.9555C12.4276 11.9555 12.7161 11.6593 12.7161 11.0807V0.338667H16.1616V11.0807C16.1616 12.5948 15.9425 13.2509 15.0861 14.0188C14.4688 14.5722 13.3304 15 11.8928 15C10.7314 15 9.62011 14.6554 8.91138 14.0189C8.29002 13.4609 7.9487 12.8877 7.41529 11.0806L5.30102 3.91933C5.11484 3.28846 4.81472 3.04462 4.28415 3.04462C3.73397 3.04462 3.44555 3.34074 3.44555 3.91933V14.6614H0V3.91933C0 2.40528 0.219243 1.74911 1.07567 0.981183C1.69267 0.427991 2.83126 0 4.26892 0C5.4303 0 6.54162 0.3447 7.25036 0.981077C7.87172 1.53914 8.21304 2.11233 8.74645 3.91944L10.8607 11.0807Z" fill="#FAFAFA"/>
<path id="Vector_2" d="M56.4385 14.6614L52.4593 3.50267C52.4154 3.37948 52.374 3.27491 52.3102 3.20517C52.2009 3.08589 52.0496 3.02324 51.8461 3.02324C51.6427 3.02324 51.4914 3.08589 51.382 3.20517C51.3184 3.27481 51.2768 3.37937 51.233 3.50267L47.2539 14.6614H43.6923L48.0388 2.47185C48.2652 1.83685 48.589 1.29773 48.9997 0.938532C49.7047 0.322475 50.5354 0 51.8462 0C53.1571 0 53.9879 0.322475 54.6926 0.938426C55.1033 1.29773 55.4271 1.83674 55.6536 2.47174L60 14.6613H56.4385V14.6614Z" fill="#FAFAFA"/>
<path id="Vector_3" d="M38.8283 14.6614C41.0856 14.6614 42.1867 14.2315 43.0566 13.4561C44.0191 12.5983 44.4796 11.6598 44.4796 10.2586C44.4796 9.0204 43.9739 7.87359 43.204 7.18737C42.1974 6.29 40.9471 6.00722 38.9084 6.00722L36.0528 6.00711C34.9617 6.00711 34.5269 5.8889 34.1828 5.58589C33.9466 5.37804 33.8359 5.0689 33.8359 4.70451C33.8359 4.32785 33.937 3.95585 34.2258 3.70174C34.4821 3.47621 34.8315 3.3727 35.5028 3.3727H43.7557V0.338667H36.1331C33.8758 0.338667 32.7748 0.768669 31.9048 1.54401C30.9424 2.40179 30.4818 3.34021 30.4818 4.74145C30.4818 5.97981 30.9875 7.12651 31.7574 7.81263C32.7641 8.70999 34.0143 8.99289 36.053 8.99289L38.9087 8.9931C39.9998 8.9931 40.4346 9.1111 40.7787 9.41421C41.0149 9.62217 41.1256 9.93121 41.1256 10.2956C41.1256 10.6723 41.0245 11.0443 40.7358 11.2984C40.4794 11.5239 40.13 11.6274 39.4587 11.6274H30.9471L27.6825 2.47185C27.4561 1.83685 27.1324 1.29773 26.7216 0.938532C26.0167 0.322475 25.186 0 23.8751 0C22.5643 0 21.7335 0.322475 21.0289 0.938426C20.618 1.29773 20.2944 1.83674 20.068 2.47174L15.7215 14.6613H19.283L23.2622 3.50256C23.3061 3.37937 23.3475 3.27481 23.4113 3.20506C23.5206 3.08579 23.6719 3.02314 23.8754 3.02314C24.0788 3.02314 24.23 3.08579 24.3395 3.20506C24.4032 3.2747 24.4447 3.37926 24.4885 3.50256L28.4677 14.6613H38.8283V14.6614Z" fill="#FAFAFA"/>
</g>
</g>
</g>
</svg>
