<svg width="80" height="30" viewBox="0 0 80 30" fill="none" xmlns="http://www.w3.org/2000/svg">
<g id="WhereLogo">
<path id="WHERE IS THE ISS AT?" d="M5.625 9.875V8.75H4.5V2H6.75V6.5H7.875V2H9V6.5H10.125V2H12.375V8.75H11.25V9.875H10.125V8.75H9V7.625H7.875V8.75H6.75V9.875H5.625ZM13.5 9.875V2H15.75V5.375H19.125V2H21.375V9.875H19.125V6.5H15.75V9.875H13.5ZM22.5 9.875V2H30.375V3.125H24.75V5.375H29.25V6.5H24.75V8.75H30.375V9.875H22.5ZM31.5 9.875V2H38.25V3.125H39.375V6.5H37.125V7.625H38.25V8.75H39.375V9.875H36V8.75H34.875V7.625H33.75V9.875H31.5ZM33.75 6.5H36V5.375H37.125V3.125H33.75V6.5ZM40.5 9.875V2H48.375V3.125H42.75V5.375H47.25V6.5H42.75V8.75H48.375V9.875H40.5ZM59.625 9.875V8.75H61.875V3.125H59.625V2H66.375V3.125H64.125V8.75H66.375V9.875H59.625ZM68.625 9.875V8.75H67.5V7.625H69.75V8.75H73.125V6.5H68.625V5.375H67.5V3.125H68.625V2H74.25V3.125H75.375V4.25H73.125V3.125H69.75V5.375H74.25V6.5H75.375V8.75H74.25V9.875H68.625ZM12.375 18.875V12.125H10.125V11H16.875V12.125H14.625V18.875H12.375ZM18 18.875V11H20.25V14.375H23.625V11H25.875V18.875H23.625V15.5H20.25V18.875H18ZM27 18.875V11H34.875V12.125H29.25V14.375H33.75V15.5H29.25V17.75H34.875V18.875H27ZM46.125 18.875V17.75H48.375V12.125H46.125V11H52.875V12.125H50.625V17.75H52.875V18.875H46.125ZM55.125 18.875V17.75H54V16.625H56.25V17.75H59.625V15.5H55.125V14.375H54V12.125H55.125V11H60.75V12.125H61.875V13.25H59.625V12.125H56.25V14.375H60.75V15.5H61.875V17.75H60.75V18.875H55.125ZM64.125 18.875V17.75H63V16.625H65.25V17.75H68.625V15.5H64.125V14.375H63V12.125H64.125V11H69.75V12.125H70.875V13.25H68.625V12.125H65.25V14.375H69.75V15.5H70.875V17.75H69.75V18.875H64.125ZM27 27.875V22.25H28.125V21.125H29.25V20H32.625V21.125H33.75V22.25H34.875V27.875H32.625V25.625H29.25V27.875H27ZM29.25 24.5H32.625V22.25H31.5V21.125H30.375V22.25H29.25V24.5ZM39.375 27.875V21.125H37.125V20H43.875V21.125H41.625V27.875H39.375ZM47.25 25.625V24.5H49.5V23.375H50.625V22.25H47.25V23.375H45V21.125H46.125V20H51.75V21.125H52.875V23.375H51.75V24.5H50.625V25.625H47.25ZM47.25 27.875V26.75H50.625V27.875H47.25Z" fill="#E8DE2F"/>
</g>
</svg>
