<svg width="230" height="452" viewBox="0 0 230 452" fill="none" xmlns="http://www.w3.org/2000/svg">
<g id="Marker">
<g id="zmdi:fire">
<path id="Vector" d="M135.727 4.02161C164.254 27.2572 186.764 55.4081 203.256 88.4742C219.748 121.54 227.994 157.064 227.994 195.045C227.994 226.324 216.851 253.134 194.564 275.476C172.277 297.818 145.422 308.989 113.997 308.989C82.5727 308.989 55.7171 297.818 33.4303 275.476C11.1434 253.134 3.05176e-05 226.324 3.05176e-05 195.045C3.05176e-05 146.787 15.3779 104.337 46.1338 67.6962L45.4652 73.0582C45.4652 87.8039 50.4797 100.315 60.5088 110.593C70.5378 120.87 82.907 126.009 97.6163 126.009C111.88 126.009 123.469 120.87 132.384 110.593C141.298 100.315 145.756 87.8039 145.756 73.0582C145.756 63.6746 144.976 53.2856 143.416 41.8912C141.856 30.4968 140.184 21.4483 138.401 14.7457L135.727 4.02161ZM109.651 266.093C128.818 266.093 145.087 259.39 158.459 245.985C171.831 232.58 178.517 216.494 178.517 197.726C178.517 177.619 175.62 158.405 169.826 140.084C156.454 158.405 134.612 170.693 104.302 176.948C91.376 179.629 81.4584 184.88 74.5495 192.699C67.6405 200.519 64.1861 210.014 64.1861 221.185C64.1861 233.697 68.6434 244.309 77.5582 253.023C86.4729 261.736 97.1706 266.093 109.651 266.093Z" fill="#B80808"/>
</g>
<path id="Polygon 1" d="M114.614 451.262L54 311.527C54 311.527 90.4316 325.773 114.54 325.58C138.283 325.389 173.999 311 173.999 311L114.614 451.262Z" fill="#B80808"/>
</g>
</svg>
